<svg xmlns="http://www.w3.org/2000/svg" xmlns:xlink="http://www.w3.org/1999/xlink" width="1080" zoomAndPan="magnify" viewBox="0 0 810 809.999993" height="1080" preserveAspectRatio="xMidYMid meet" version="1.0"><defs><clipPath id="5b45b0b237"><path d="M 6.183594 16.269531 L 804 16.269531 L 804 793.730469 L 6.183594 793.730469 Z M 6.183594 16.269531 " clip-rule="nonzero"/></clipPath><clipPath id="eef61dcd74"><path d="M 81.183594 16.269531 L 728.816406 16.269531 C 748.707031 16.269531 767.785156 24.171875 781.851562 38.234375 C 795.914062 52.300781 803.816406 71.378906 803.816406 91.269531 L 803.816406 718.730469 C 803.816406 738.621094 795.914062 757.699219 781.851562 771.765625 C 767.785156 785.828125 748.707031 793.730469 728.816406 793.730469 L 81.183594 793.730469 C 61.292969 793.730469 42.214844 785.828125 28.148438 771.765625 C 14.085938 757.699219 6.183594 738.621094 6.183594 718.730469 L 6.183594 91.269531 C 6.183594 71.378906 14.085938 52.300781 28.148438 38.234375 C 42.214844 24.171875 61.292969 16.269531 81.183594 16.269531 Z M 81.183594 16.269531 " clip-rule="nonzero"/></clipPath><clipPath id="2384db8691"><path d="M 0.183594 0.269531 L 798 0.269531 L 798 777.730469 L 0.183594 777.730469 Z M 0.183594 0.269531 " clip-rule="nonzero"/></clipPath><clipPath id="d0aded357d"><path d="M 75.183594 0.269531 L 722.816406 0.269531 C 742.707031 0.269531 761.785156 8.171875 775.851562 22.234375 C 789.914062 36.300781 797.816406 55.378906 797.816406 75.269531 L 797.816406 702.730469 C 797.816406 722.621094 789.914062 741.699219 775.851562 755.765625 C 761.785156 769.828125 742.707031 777.730469 722.816406 777.730469 L 75.183594 777.730469 C 55.292969 777.730469 36.214844 769.828125 22.148438 755.765625 C 8.085938 741.699219 0.183594 722.621094 0.183594 702.730469 L 0.183594 75.269531 C 0.183594 55.378906 8.085938 36.300781 22.148438 22.234375 C 36.214844 8.171875 55.292969 0.269531 75.183594 0.269531 Z M 75.183594 0.269531 " clip-rule="nonzero"/></clipPath><clipPath id="9f8d7277d8"><rect x="0" width="798" y="0" height="778"/></clipPath><clipPath id="ed9d71d9cf"><path d="M 114.820312 118.09375 L 389.382812 118.09375 L 389.382812 402 L 114.820312 402 Z M 114.820312 118.09375 " clip-rule="nonzero"/></clipPath><clipPath id="559ca0106d"><path d="M 163.570312 118.09375 L 340.632812 118.09375 C 353.5625 118.09375 365.960938 123.230469 375.105469 132.375 C 384.246094 141.515625 389.382812 153.917969 389.382812 166.84375 L 389.382812 353.195312 C 389.382812 366.125 384.246094 378.527344 375.105469 387.667969 C 365.960938 396.8125 353.5625 401.945312 340.632812 401.945312 L 163.570312 401.945312 C 150.640625 401.945312 138.238281 396.8125 129.097656 387.667969 C 119.957031 378.527344 114.820312 366.125 114.820312 353.195312 L 114.820312 166.84375 C 114.820312 153.917969 119.957031 141.515625 129.097656 132.375 C 138.238281 123.230469 150.640625 118.09375 163.570312 118.09375 Z M 163.570312 118.09375 " clip-rule="nonzero"/></clipPath><clipPath id="534e0a76ac"><path d="M 0.820312 0.09375 L 275.382812 0.09375 L 275.382812 284 L 0.820312 284 Z M 0.820312 0.09375 " clip-rule="nonzero"/></clipPath><clipPath id="cacf036de6"><path d="M 49.570312 0.09375 L 226.632812 0.09375 C 239.5625 0.09375 251.960938 5.230469 261.105469 14.375 C 270.246094 23.515625 275.382812 35.917969 275.382812 48.84375 L 275.382812 235.195312 C 275.382812 248.125 270.246094 260.527344 261.105469 269.667969 C 251.960938 278.8125 239.5625 283.945312 226.632812 283.945312 L 49.570312 283.945312 C 36.640625 283.945312 24.238281 278.8125 15.097656 269.667969 C 5.957031 260.527344 0.820312 248.125 0.820312 235.195312 L 0.820312 48.84375 C 0.820312 35.917969 5.957031 23.515625 15.097656 14.375 C 24.238281 5.230469 36.640625 0.09375 49.570312 0.09375 Z M 49.570312 0.09375 " clip-rule="nonzero"/></clipPath><clipPath id="60040efd13"><rect x="0" width="276" y="0" height="284"/></clipPath><clipPath id="c0b2c079cd"><path d="M 114.820312 437.355469 L 389.382812 437.355469 L 389.382812 721.574219 L 114.820312 721.574219 Z M 114.820312 437.355469 " clip-rule="nonzero"/></clipPath><clipPath id="1562694f02"><path d="M 163.570312 437.355469 L 340.632812 437.355469 C 353.5625 437.355469 365.960938 442.492188 375.105469 451.636719 C 384.246094 460.777344 389.382812 473.175781 389.382812 486.105469 L 389.382812 672.457031 C 389.382812 685.386719 384.246094 697.789062 375.105469 706.929688 C 365.960938 716.074219 353.5625 721.207031 340.632812 721.207031 L 163.570312 721.207031 C 150.640625 721.207031 138.238281 716.074219 129.097656 706.929688 C 119.957031 697.789062 114.820312 685.386719 114.820312 672.457031 L 114.820312 486.105469 C 114.820312 473.175781 119.957031 460.777344 129.097656 451.636719 C 138.238281 442.492188 150.640625 437.355469 163.570312 437.355469 Z M 163.570312 437.355469 " clip-rule="nonzero"/></clipPath><clipPath id="b59bd92416"><path d="M 0.820312 0.355469 L 275.382812 0.355469 L 275.382812 284.441406 L 0.820312 284.441406 Z M 0.820312 0.355469 " clip-rule="nonzero"/></clipPath><clipPath id="3b4dd0c77b"><path d="M 49.570312 0.355469 L 226.632812 0.355469 C 239.5625 0.355469 251.960938 5.492188 261.105469 14.636719 C 270.246094 23.777344 275.382812 36.175781 275.382812 49.105469 L 275.382812 235.457031 C 275.382812 248.386719 270.246094 260.789062 261.105469 269.929688 C 251.960938 279.074219 239.5625 284.207031 226.632812 284.207031 L 49.570312 284.207031 C 36.640625 284.207031 24.238281 279.074219 15.097656 269.929688 C 5.957031 260.789062 0.820312 248.386719 0.820312 235.457031 L 0.820312 49.105469 C 0.820312 36.175781 5.957031 23.777344 15.097656 14.636719 C 24.238281 5.492188 36.640625 0.355469 49.570312 0.355469 Z M 49.570312 0.355469 " clip-rule="nonzero"/></clipPath><clipPath id="a905b15320"><rect x="0" width="276" y="0" height="285"/></clipPath><clipPath id="fc20504e65"><path d="M 420.617188 437.355469 L 695.179688 437.355469 L 695.179688 721.574219 L 420.617188 721.574219 Z M 420.617188 437.355469 " clip-rule="nonzero"/></clipPath><clipPath id="9c66ab9f27"><path d="M 469.367188 437.355469 L 646.429688 437.355469 C 659.359375 437.355469 671.761719 442.492188 680.902344 451.636719 C 690.042969 460.777344 695.179688 473.175781 695.179688 486.105469 L 695.179688 672.457031 C 695.179688 685.386719 690.042969 697.789062 680.902344 706.929688 C 671.761719 716.074219 659.359375 721.207031 646.429688 721.207031 L 469.367188 721.207031 C 456.4375 721.207031 444.039062 716.074219 434.894531 706.929688 C 425.753906 697.789062 420.617188 685.386719 420.617188 672.457031 L 420.617188 486.105469 C 420.617188 473.175781 425.753906 460.777344 434.894531 451.636719 C 444.039062 442.492188 456.4375 437.355469 469.367188 437.355469 Z M 469.367188 437.355469 " clip-rule="nonzero"/></clipPath><clipPath id="2f8123e014"><path d="M 0.617188 0.355469 L 275.179688 0.355469 L 275.179688 284.441406 L 0.617188 284.441406 Z M 0.617188 0.355469 " clip-rule="nonzero"/></clipPath><clipPath id="cbbaf667bb"><path d="M 49.367188 0.355469 L 226.429688 0.355469 C 239.359375 0.355469 251.761719 5.492188 260.902344 14.636719 C 270.042969 23.777344 275.179688 36.175781 275.179688 49.105469 L 275.179688 235.457031 C 275.179688 248.386719 270.042969 260.789062 260.902344 269.929688 C 251.761719 279.074219 239.359375 284.207031 226.429688 284.207031 L 49.367188 284.207031 C 36.4375 284.207031 24.039062 279.074219 14.894531 269.929688 C 5.753906 260.789062 0.617188 248.386719 0.617188 235.457031 L 0.617188 49.105469 C 0.617188 36.175781 5.753906 23.777344 14.894531 14.636719 C 24.039062 5.492188 36.4375 0.355469 49.367188 0.355469 Z M 49.367188 0.355469 " clip-rule="nonzero"/></clipPath><clipPath id="333e2849fe"><rect x="0" width="276" y="0" height="285"/></clipPath></defs><g clip-path="url(#5b45b0b237)"><g clip-path="url(#eef61dcd74)"><g transform="matrix(1, 0, 0, 1, 6, 16)"><g clip-path="url(#9f8d7277d8)"><g clip-path="url(#2384db8691)"><g clip-path="url(#d0aded357d)"><path fill="#f8f8f8" d="M 0.183594 0.269531 L 798.902344 0.269531 L 798.902344 777.730469 L 0.183594 777.730469 Z M 0.183594 0.269531 " fill-opacity="1" fill-rule="nonzero"/></g></g></g></g></g></g><g clip-path="url(#ed9d71d9cf)"><g clip-path="url(#559ca0106d)"><g transform="matrix(1, 0, 0, 1, 114, 118)"><g clip-path="url(#60040efd13)"><g clip-path="url(#534e0a76ac)"><g clip-path="url(#cacf036de6)"><path fill="#316dbd" d="M 0.820312 0.09375 L 275.382812 0.09375 L 275.382812 284.3125 L 0.820312 284.3125 Z M 0.820312 0.09375 " fill-opacity="1" fill-rule="nonzero"/></g></g></g></g></g></g><g clip-path="url(#c0b2c079cd)"><g clip-path="url(#1562694f02)"><g transform="matrix(1, 0, 0, 1, 114, 437)"><g clip-path="url(#a905b15320)"><g clip-path="url(#b59bd92416)"><g clip-path="url(#3b4dd0c77b)"><path fill="#7ed957" d="M 0.820312 0.355469 L 275.382812 0.355469 L 275.382812 284.574219 L 0.820312 284.574219 Z M 0.820312 0.355469 " fill-opacity="1" fill-rule="nonzero"/></g></g></g></g></g></g><g clip-path="url(#fc20504e65)"><g clip-path="url(#9c66ab9f27)"><g transform="matrix(1, 0, 0, 1, 420, 437)"><g clip-path="url(#333e2849fe)"><g clip-path="url(#2f8123e014)"><g clip-path="url(#cbbaf667bb)"><path fill="#8c52ff" d="M 0.617188 0.355469 L 275.179688 0.355469 L 275.179688 284.574219 L 0.617188 284.574219 Z M 0.617188 0.355469 " fill-opacity="1" fill-rule="nonzero"/></g></g></g></g></g></g></svg>