<svg xmlns="http://www.w3.org/2000/svg" xmlns:xlink="http://www.w3.org/1999/xlink" width="1080" zoomAndPan="magnify" viewBox="0 0 810 809.999993" height="1080" preserveAspectRatio="xMidYMid meet" version="1.2"><g id="3f450364c8"><path style=" stroke:none;fill-rule:nonzero;fill:#274d90;fill-opacity:1;" d="M 643.019531 156.363281 L 374.777344 156.363281 L 379.671875 167.644531 C 381.574219 172.589844 382.816406 177.699219 383.394531 182.964844 L 643.019531 182.964844 C 644.320312 182.964844 645.617188 183.027344 646.90625 183.15625 C 648.199219 183.28125 649.484375 183.472656 650.757812 183.726562 C 652.03125 183.976562 653.289062 184.292969 654.535156 184.667969 C 655.777344 185.046875 657 185.484375 658.199219 185.980469 C 659.398438 186.476562 660.570312 187.03125 661.71875 187.640625 C 662.863281 188.253906 663.976562 188.917969 665.058594 189.640625 C 666.136719 190.359375 667.179688 191.132812 668.183594 191.957031 C 669.1875 192.78125 670.152344 193.652344 671.070312 194.566406 C 671.988281 195.484375 672.859375 196.445312 673.683594 197.449219 C 674.507812 198.453125 675.285156 199.496094 676.003906 200.574219 C 676.726562 201.652344 677.394531 202.765625 678.007812 203.910156 C 678.621094 205.054688 679.179688 206.226562 679.675781 207.425781 C 680.175781 208.628906 680.613281 209.847656 680.992188 211.089844 C 681.367188 212.332031 681.683594 213.589844 681.941406 214.863281 C 682.195312 216.140625 682.386719 217.421875 682.515625 218.714844 C 682.644531 220.007812 682.707031 221.300781 682.710938 222.601562 L 682.710938 508.242188 C 682.707031 509.542969 682.644531 510.839844 682.515625 512.132812 C 682.386719 513.425781 682.195312 514.707031 681.941406 515.984375 C 681.6875 517.257812 681.371094 518.515625 680.992188 519.761719 C 680.613281 521.003906 680.175781 522.226562 679.679688 523.425781 C 679.183594 524.625 678.625 525.800781 678.011719 526.945312 C 677.398438 528.089844 676.734375 529.203125 676.011719 530.285156 C 675.289062 531.363281 674.515625 532.40625 673.691406 533.410156 C 672.867188 534.417969 671.992188 535.378906 671.074219 536.296875 C 670.15625 537.214844 669.195312 538.085938 668.191406 538.910156 C 667.1875 539.738281 666.144531 540.507812 665.0625 541.230469 C 663.980469 541.953125 662.871094 542.621094 661.722656 543.234375 C 660.578125 543.847656 659.40625 544.402344 658.203125 544.902344 C 657.003906 545.398438 655.78125 545.835938 654.539062 546.214844 C 653.292969 546.59375 652.035156 546.910156 650.761719 547.164062 C 649.488281 547.417969 648.203125 547.609375 646.910156 547.738281 C 645.617188 547.867188 644.320312 547.929688 643.019531 547.929688 L 443.671875 547.929688 C 440.675781 547.921875 437.707031 548.207031 434.765625 548.789062 C 431.824219 549.371094 428.972656 550.238281 426.203125 551.386719 C 423.433594 552.539062 420.808594 553.953125 418.320312 555.625 C 415.835938 557.300781 413.539062 559.207031 411.433594 561.339844 L 272.683594 701.207031 C 272.503906 701.425781 272.292969 701.609375 272.050781 701.753906 C 271.808594 701.898438 271.546875 701.996094 271.265625 702.042969 C 270.988281 702.09375 270.707031 702.089844 270.429688 702.039062 C 270.152344 701.984375 269.890625 701.886719 269.648438 701.738281 C 269.144531 701.527344 268.742188 701.195312 268.441406 700.742188 C 268.140625 700.285156 267.992188 699.785156 268 699.238281 L 268 561.230469 C 268 560.359375 267.914062 559.492188 267.742188 558.636719 C 267.574219 557.78125 267.320312 556.949219 266.988281 556.144531 C 266.652344 555.335938 266.242188 554.570312 265.757812 553.84375 C 265.273438 553.117188 264.722656 552.445312 264.101562 551.828125 C 263.484375 551.210938 262.8125 550.660156 262.089844 550.175781 C 261.363281 549.6875 260.597656 549.28125 259.789062 548.945312 C 258.980469 548.609375 258.152344 548.359375 257.292969 548.1875 C 256.4375 548.015625 255.574219 547.929688 254.699219 547.929688 L 166.4375 547.929688 C 165.136719 547.929688 163.84375 547.867188 162.546875 547.738281 C 161.253906 547.609375 159.972656 547.417969 158.699219 547.164062 C 157.421875 546.910156 156.164062 546.59375 154.921875 546.214844 C 153.675781 545.835938 152.457031 545.398438 151.253906 544.902344 C 150.054688 544.402344 148.882812 543.847656 147.734375 543.234375 C 146.589844 542.621094 145.476562 541.953125 144.394531 541.230469 C 143.316406 540.507812 142.273438 539.738281 141.269531 538.910156 C 140.265625 538.085938 139.300781 537.214844 138.382812 536.296875 C 137.464844 535.378906 136.59375 534.417969 135.769531 533.410156 C 134.945312 532.40625 134.171875 531.363281 133.449219 530.285156 C 132.726562 529.203125 132.058594 528.089844 131.445312 526.945312 C 130.832031 525.800781 130.277344 524.625 129.78125 523.425781 C 129.28125 522.226562 128.84375 521.003906 128.464844 519.757812 C 128.089844 518.515625 127.773438 517.257812 127.515625 515.984375 C 127.261719 514.707031 127.070312 513.425781 126.945312 512.132812 C 126.816406 510.839844 126.75 509.542969 126.75 508.242188 L 126.75 222.601562 C 126.75 221.300781 126.816406 220.007812 126.945312 218.714844 C 127.074219 217.421875 127.265625 216.140625 127.519531 214.863281 C 127.773438 213.589844 128.089844 212.332031 128.46875 211.089844 C 128.847656 209.847656 129.285156 208.628906 129.78125 207.429688 C 130.28125 206.226562 130.835938 205.054688 131.449219 203.910156 C 132.0625 202.765625 132.730469 201.652344 133.453125 200.574219 C 134.175781 199.496094 134.949219 198.453125 135.773438 197.449219 C 136.597656 196.445312 137.46875 195.484375 138.390625 194.570312 C 139.308594 193.652344 140.269531 192.78125 141.273438 191.957031 C 142.277344 191.132812 143.320312 190.359375 144.402344 189.640625 C 145.480469 188.917969 146.59375 188.253906 147.742188 187.640625 C 148.886719 187.03125 150.058594 186.476562 151.261719 185.980469 C 152.460938 185.484375 153.683594 185.046875 154.925781 184.667969 C 156.167969 184.292969 157.425781 183.976562 158.699219 183.726562 C 159.976562 183.472656 161.257812 183.28125 162.550781 183.15625 C 163.84375 183.027344 165.140625 182.964844 166.4375 182.964844 L 206.5 182.964844 C 206.542969 177.058594 207.039062 171.1875 207.988281 165.355469 C 208.46875 162.324219 209.105469 159.34375 209.851562 156.363281 L 166.4375 156.363281 C 165.355469 156.367188 164.269531 156.390625 163.1875 156.445312 C 162.105469 156.5 161.023438 156.578125 159.945312 156.6875 C 158.867188 156.792969 157.789062 156.925781 156.71875 157.085938 C 155.644531 157.246094 154.578125 157.429688 153.515625 157.644531 C 152.449219 157.855469 151.394531 158.09375 150.34375 158.355469 C 149.289062 158.621094 148.246094 158.910156 147.207031 159.222656 C 146.171875 159.539062 145.140625 159.878906 144.121094 160.242188 C 143.101562 160.609375 142.089844 161 141.085938 161.414062 C 140.085938 161.828125 139.09375 162.269531 138.113281 162.730469 C 137.132812 163.195312 136.167969 163.683594 135.210938 164.195312 C 134.253906 164.707031 133.3125 165.238281 132.382812 165.796875 C 131.449219 166.355469 130.535156 166.933594 129.632812 167.535156 C 128.730469 168.136719 127.847656 168.761719 126.976562 169.40625 C 126.105469 170.054688 125.25 170.71875 124.410156 171.40625 C 123.574219 172.09375 122.75 172.800781 121.949219 173.53125 C 121.144531 174.257812 120.359375 175.003906 119.59375 175.769531 C 118.824219 176.539062 118.078125 177.324219 117.347656 178.125 C 116.621094 178.929688 115.914062 179.75 115.222656 180.585938 C 114.535156 181.425781 113.867188 182.277344 113.222656 183.148438 C 112.574219 184.019531 111.953125 184.90625 111.347656 185.804688 C 110.746094 186.707031 110.164062 187.621094 109.605469 188.550781 C 109.050781 189.480469 108.515625 190.425781 108.003906 191.378906 C 107.492188 192.335938 107.003906 193.304688 106.539062 194.285156 C 106.074219 195.261719 105.632812 196.253906 105.21875 197.253906 C 104.800781 198.257812 104.410156 199.265625 104.046875 200.289062 C 103.679688 201.308594 103.339844 202.335938 103.023438 203.375 C 102.707031 204.410156 102.417969 205.457031 102.152344 206.507812 C 101.886719 207.558594 101.648438 208.617188 101.4375 209.679688 C 101.222656 210.742188 101.039062 211.808594 100.878906 212.882812 C 100.714844 213.953125 100.582031 215.03125 100.476562 216.109375 C 100.367188 217.1875 100.285156 218.269531 100.230469 219.351562 C 100.175781 220.433594 100.148438 221.515625 100.148438 222.601562 L 100.148438 508.242188 C 100.148438 509.328125 100.175781 510.410156 100.230469 511.492188 C 100.285156 512.578125 100.367188 513.660156 100.472656 514.738281 C 100.582031 515.816406 100.714844 516.894531 100.875 517.964844 C 101.035156 519.039062 101.222656 520.105469 101.433594 521.167969 C 101.648438 522.234375 101.886719 523.289062 102.148438 524.34375 C 102.414062 525.394531 102.703125 526.4375 103.019531 527.476562 C 103.335938 528.515625 103.675781 529.542969 104.042969 530.566406 C 104.410156 531.585938 104.800781 532.597656 105.214844 533.597656 C 105.628906 534.601562 106.070312 535.589844 106.535156 536.570312 C 107 537.550781 107.488281 538.519531 108 539.476562 C 108.511719 540.433594 109.046875 541.375 109.601562 542.304688 C 110.160156 543.234375 110.742188 544.152344 111.34375 545.050781 C 111.945312 545.953125 112.570312 546.839844 113.21875 547.710938 C 113.863281 548.582031 114.53125 549.4375 115.21875 550.273438 C 115.90625 551.113281 116.617188 551.933594 117.34375 552.738281 C 118.074219 553.542969 118.820312 554.328125 119.585938 555.09375 C 120.355469 555.859375 121.140625 556.609375 121.941406 557.335938 C 122.746094 558.066406 123.566406 558.773438 124.40625 559.460938 C 125.242188 560.148438 126.097656 560.816406 126.96875 561.460938 C 127.839844 562.109375 128.726562 562.734375 129.628906 563.335938 C 130.53125 563.9375 131.445312 564.519531 132.375 565.078125 C 133.304688 565.636719 134.25 566.171875 135.203125 566.683594 C 136.160156 567.195312 137.128906 567.679688 138.109375 568.144531 C 139.089844 568.609375 140.082031 569.050781 141.082031 569.464844 C 142.082031 569.882812 143.09375 570.273438 144.117188 570.636719 C 145.136719 571.003906 146.167969 571.34375 147.203125 571.660156 C 148.242188 571.976562 149.285156 572.265625 150.335938 572.53125 C 151.390625 572.792969 152.445312 573.03125 153.511719 573.246094 C 154.574219 573.457031 155.640625 573.644531 156.714844 573.804688 C 157.789062 573.964844 158.863281 574.097656 159.941406 574.207031 C 161.023438 574.3125 162.101562 574.394531 163.1875 574.449219 C 164.269531 574.503906 165.351562 574.53125 166.4375 574.53125 L 241.398438 574.53125 L 241.398438 699.238281 C 241.390625 700.675781 241.488281 702.105469 241.691406 703.53125 C 241.898438 704.953125 242.207031 706.351562 242.617188 707.730469 C 243.027344 709.109375 243.539062 710.449219 244.152344 711.75 C 244.761719 713.050781 245.464844 714.300781 246.261719 715.496094 C 247.058594 716.695312 247.941406 717.828125 248.90625 718.894531 C 249.867188 719.960938 250.90625 720.949219 252.019531 721.859375 C 253.128906 722.773438 254.300781 723.597656 255.535156 724.335938 C 256.769531 725.074219 258.050781 725.714844 259.382812 726.265625 C 263.015625 727.835938 266.808594 728.617188 270.765625 728.605469 C 272.703125 728.609375 274.617188 728.425781 276.515625 728.046875 C 278.414062 727.671875 280.257812 727.109375 282.042969 726.367188 C 283.828125 725.621094 285.523438 724.707031 287.125 723.625 C 288.730469 722.542969 290.210938 721.3125 291.570312 719.933594 L 430.320312 580.117188 C 431.1875 579.230469 432.136719 578.4375 433.167969 577.738281 C 434.195312 577.039062 435.285156 576.453125 436.429688 575.972656 C 437.578125 575.492188 438.761719 575.132812 439.980469 574.890625 C 441.199219 574.644531 442.429688 574.527344 443.671875 574.53125 L 643.019531 574.53125 C 644.105469 574.53125 645.191406 574.503906 646.273438 574.449219 C 647.355469 574.394531 648.4375 574.3125 649.515625 574.207031 C 650.59375 574.097656 651.671875 573.964844 652.742188 573.804688 C 653.816406 573.644531 654.882812 573.457031 655.949219 573.246094 C 657.011719 573.03125 658.070312 572.792969 659.121094 572.53125 C 660.171875 572.265625 661.21875 571.976562 662.253906 571.660156 C 663.292969 571.34375 664.320312 571.003906 665.34375 570.636719 C 666.363281 570.273438 667.375 569.882812 668.375 569.464844 C 669.378906 569.050781 670.371094 568.609375 671.351562 568.144531 C 672.328125 567.679688 673.296875 567.195312 674.253906 566.683594 C 675.210938 566.171875 676.152344 565.636719 677.082031 565.078125 C 678.011719 564.519531 678.929688 563.9375 679.832031 563.335938 C 680.734375 562.734375 681.617188 562.109375 682.488281 561.460938 C 683.359375 560.816406 684.214844 560.148438 685.054688 559.460938 C 685.890625 558.773438 686.710938 558.066406 687.515625 557.335938 C 688.320312 556.609375 689.105469 555.859375 689.871094 555.09375 C 690.640625 554.328125 691.386719 553.542969 692.113281 552.738281 C 692.84375 551.933594 693.550781 551.113281 694.238281 550.273438 C 694.929688 549.4375 695.59375 548.582031 696.242188 547.710938 C 696.886719 546.839844 697.511719 545.953125 698.113281 545.054688 C 698.71875 544.152344 699.296875 543.234375 699.855469 542.304688 C 700.414062 541.375 700.949219 540.433594 701.460938 539.476562 C 701.972656 538.519531 702.460938 537.550781 702.925781 536.570312 C 703.386719 535.589844 703.828125 534.601562 704.242188 533.597656 C 704.660156 532.597656 705.050781 531.585938 705.417969 530.566406 C 705.78125 529.542969 706.125 528.515625 706.4375 527.476562 C 706.753906 526.4375 707.042969 525.394531 707.308594 524.34375 C 707.574219 523.289062 707.8125 522.234375 708.023438 521.167969 C 708.238281 520.105469 708.421875 519.039062 708.582031 517.964844 C 708.742188 516.894531 708.878906 515.816406 708.984375 514.738281 C 709.09375 513.660156 709.171875 512.578125 709.226562 511.496094 C 709.28125 510.410156 709.308594 509.328125 709.3125 508.242188 L 709.3125 222.601562 C 709.308594 221.515625 709.28125 220.433594 709.226562 219.351562 C 709.171875 218.269531 709.089844 217.1875 708.984375 216.109375 C 708.875 215.03125 708.742188 213.953125 708.582031 212.882812 C 708.421875 211.808594 708.234375 210.742188 708.023438 209.679688 C 707.808594 208.617188 707.570312 207.558594 707.308594 206.507812 C 707.042969 205.457031 706.753906 204.410156 706.4375 203.375 C 706.121094 202.335938 705.78125 201.308594 705.414062 200.289062 C 705.046875 199.265625 704.65625 198.257812 704.242188 197.253906 C 703.824219 196.253906 703.386719 195.261719 702.921875 194.285156 C 702.457031 193.304688 701.96875 192.335938 701.457031 191.378906 C 700.945312 190.425781 700.410156 189.480469 699.851562 188.550781 C 699.292969 187.621094 698.714844 186.707031 698.109375 185.804688 C 697.507812 184.90625 696.882812 184.019531 696.238281 183.148438 C 695.589844 182.277344 694.921875 181.425781 694.234375 180.585938 C 693.546875 179.75 692.839844 178.929688 692.109375 178.125 C 691.382812 177.324219 690.632812 176.539062 689.867188 175.769531 C 689.101562 175.003906 688.316406 174.257812 687.511719 173.53125 C 686.707031 172.800781 685.886719 172.09375 685.046875 171.40625 C 684.210938 170.71875 683.355469 170.054688 682.484375 169.40625 C 681.613281 168.761719 680.726562 168.136719 679.824219 167.535156 C 678.921875 166.933594 678.007812 166.355469 677.078125 165.796875 C 676.148438 165.238281 675.203125 164.703125 674.25 164.195312 C 673.292969 163.683594 672.324219 163.195312 671.34375 162.730469 C 670.363281 162.269531 669.375 161.828125 668.371094 161.414062 C 667.371094 161 666.359375 160.609375 665.339844 160.242188 C 664.316406 159.878906 663.289062 159.539062 662.25 159.222656 C 661.214844 158.910156 660.167969 158.621094 659.117188 158.355469 C 658.066406 158.09375 657.007812 157.855469 655.945312 157.644531 C 654.882812 157.429688 653.8125 157.246094 652.742188 157.085938 C 651.667969 156.925781 650.59375 156.792969 649.515625 156.6875 C 648.433594 156.578125 647.355469 156.5 646.273438 156.445312 C 645.1875 156.390625 644.105469 156.367188 643.019531 156.363281 Z M 643.019531 156.363281 "/><path style=" stroke:none;fill-rule:nonzero;fill:#274d90;fill-opacity:1;" d="M 303.0625 365.082031 L 303.117188 365.152344 C 319.375 387.351562 337.121094 408.285156 356.355469 427.960938 C 375.589844 447.636719 396.117188 465.851562 417.941406 482.609375 C 427.785156 490.09375 438.582031 495.765625 450.332031 499.625 C 460.695312 502.957031 471.320312 504.585938 482.203125 504.519531 C 513.507812 504.519531 545.652344 491.667969 562.902344 470.089844 C 562.933594 470.046875 563.261719 469.644531 563.292969 469.605469 C 565.261719 467.199219 566.953125 464.609375 568.367188 461.835938 C 569.78125 459.0625 570.882812 456.171875 571.675781 453.164062 C 572.46875 450.15625 572.929688 447.09375 573.066406 443.988281 C 573.203125 440.878906 573.003906 437.789062 572.476562 434.722656 C 571.921875 431.777344 571.109375 428.902344 570.035156 426.101562 C 568.964844 423.300781 567.648438 420.621094 566.089844 418.058594 C 564.53125 415.496094 562.757812 413.09375 560.765625 410.851562 C 558.773438 408.609375 556.597656 406.566406 554.234375 404.71875 L 506.585938 363.019531 C 506.433594 362.886719 506.277344 362.757812 506.113281 362.628906 C 504.886719 361.652344 503.617188 360.738281 502.300781 359.886719 C 500.984375 359.035156 499.628906 358.25 498.238281 357.53125 C 496.84375 356.8125 495.417969 356.164062 493.960938 355.585938 C 492.503906 355.007812 491.023438 354.5 489.519531 354.066406 C 488.011719 353.632812 486.488281 353.273438 484.945312 352.992188 C 483.40625 352.707031 481.851562 352.496094 480.292969 352.367188 C 478.730469 352.234375 477.164062 352.179688 475.597656 352.199219 C 474.03125 352.21875 472.46875 352.320312 470.910156 352.492188 C 469.351562 352.667969 467.804688 352.917969 466.273438 353.242188 C 464.738281 353.570312 463.226562 353.96875 461.734375 354.441406 C 460.238281 354.917969 458.769531 355.464844 457.332031 356.082031 C 455.890625 356.699219 454.484375 357.386719 453.109375 358.144531 C 451.738281 358.898438 450.40625 359.71875 449.113281 360.605469 C 447.820312 361.492188 446.574219 362.441406 445.375 363.449219 C 444.171875 364.460938 443.027344 365.523438 441.929688 366.644531 C 440.835938 367.765625 439.796875 368.9375 438.816406 370.160156 L 432.929688 377.515625 C 422.410156 367.515625 412.359375 357.066406 402.78125 346.160156 C 393.203125 335.253906 384.132812 323.941406 375.574219 312.21875 C 367.015625 300.496094 359 288.414062 351.53125 275.96875 C 344.058594 263.523438 337.164062 250.769531 330.84375 237.703125 L 339.695312 234.324219 C 341.15625 233.761719 342.589844 233.128906 343.992188 232.425781 C 345.394531 231.722656 346.757812 230.953125 348.082031 230.117188 C 349.40625 229.28125 350.691406 228.382812 351.925781 227.421875 C 353.164062 226.460938 354.351562 225.441406 355.488281 224.359375 C 356.628906 223.28125 357.710938 222.152344 358.734375 220.96875 C 359.761719 219.78125 360.730469 218.550781 361.632812 217.269531 C 362.539062 215.992188 363.382812 214.671875 364.15625 213.308594 C 364.933594 211.949219 365.640625 210.550781 366.28125 209.121094 C 366.921875 207.6875 367.488281 206.230469 367.984375 204.742188 C 368.480469 203.257812 368.902344 201.75 369.25 200.222656 C 369.597656 198.691406 369.871094 197.152344 370.070312 195.597656 C 370.265625 194.039062 370.386719 192.480469 370.429688 190.914062 C 370.472656 189.347656 370.441406 187.78125 370.332031 186.21875 C 370.222656 184.652344 370.035156 183.097656 369.773438 181.554688 C 369.511719 180.007812 369.175781 178.480469 368.765625 176.96875 C 368.351562 175.453125 367.867188 173.964844 367.308594 172.5 C 367.238281 172.324219 367.164062 172.144531 367.089844 171.964844 L 341.929688 113.84375 C 340.886719 111.03125 339.601562 108.335938 338.070312 105.757812 C 336.539062 103.175781 334.789062 100.753906 332.820312 98.492188 C 330.851562 96.226562 328.695312 94.160156 326.355469 92.285156 C 324.011719 90.410156 321.523438 88.761719 318.882812 87.335938 C 316.085938 85.890625 313.167969 84.757812 310.125 83.941406 C 307.082031 83.125 303.988281 82.640625 300.84375 82.492188 C 297.699219 82.347656 294.574219 82.535156 291.46875 83.0625 C 288.363281 83.589844 285.351562 84.445312 282.433594 85.621094 C 252.824219 96.898438 227.046875 131.332031 221.140625 167.496094 C 219.746094 176.207031 219.460938 184.957031 220.28125 193.738281 C 221.101562 202.523438 223 211.066406 225.980469 219.371094 C 235.296875 245.363281 246.414062 270.566406 259.324219 294.976562 C 272.238281 319.386719 286.816406 342.753906 303.0625 365.082031 Z M 247.394531 171.785156 C 252.230469 142.179688 273.820312 117.367188 292.34375 110.3125 C 293.484375 109.84375 294.660156 109.503906 295.875 109.292969 C 297.085938 109.082031 298.308594 109 299.539062 109.054688 C 300.769531 109.109375 301.980469 109.292969 303.167969 109.609375 C 304.359375 109.925781 305.503906 110.367188 306.597656 110.929688 C 309.074219 112.328125 311.226562 114.121094 313.050781 116.304688 C 314.878906 118.492188 316.257812 120.929688 317.191406 123.617188 C 317.261719 123.800781 317.332031 123.984375 317.410156 124.164062 L 342.550781 182.238281 C 342.789062 182.886719 342.992188 183.546875 343.167969 184.214844 C 343.339844 184.886719 343.480469 185.5625 343.589844 186.242188 C 343.695312 186.925781 343.769531 187.613281 343.8125 188.304688 C 343.851562 188.992188 343.859375 189.683594 343.835938 190.375 C 343.808594 191.066406 343.75 191.753906 343.65625 192.4375 C 343.5625 193.125 343.4375 193.800781 343.277344 194.476562 C 343.121094 195.148438 342.929688 195.8125 342.703125 196.464844 C 342.480469 197.121094 342.226562 197.761719 341.941406 198.390625 C 341.65625 199.019531 341.339844 199.636719 340.992188 200.234375 C 340.648438 200.832031 340.273438 201.414062 339.871094 201.976562 C 339.46875 202.539062 339.042969 203.078125 338.585938 203.601562 C 338.132812 204.121094 337.652344 204.617188 337.152344 205.09375 C 336.648438 205.566406 336.121094 206.015625 335.578125 206.4375 C 335.03125 206.863281 334.464844 207.257812 333.878906 207.625 C 333.292969 207.996094 332.691406 208.332031 332.074219 208.644531 C 331.457031 208.953125 330.824219 209.230469 330.179688 209.480469 L 307.984375 217.960938 C 307.136719 218.28125 306.332031 218.6875 305.570312 219.175781 C 304.804688 219.664062 304.097656 220.222656 303.449219 220.855469 C 302.800781 221.488281 302.222656 222.179688 301.714844 222.929688 C 301.207031 223.679688 300.78125 224.472656 300.433594 225.3125 C 300.089844 226.148438 299.832031 227.011719 299.664062 227.902344 C 299.492188 228.792969 299.417969 229.691406 299.429688 230.597656 C 299.445312 231.503906 299.550781 232.398438 299.75 233.28125 C 299.945312 234.167969 300.230469 235.023438 300.605469 235.847656 C 307.890625 252.078125 316.003906 267.886719 324.941406 283.273438 C 333.882812 298.65625 343.597656 313.535156 354.089844 327.90625 C 364.582031 342.273438 375.796875 356.058594 387.726562 369.257812 C 399.660156 382.457031 412.25 394.996094 425.492188 406.882812 C 426.164062 407.488281 426.890625 408.019531 427.671875 408.476562 C 428.457031 408.933594 429.277344 409.304688 430.132812 409.59375 C 430.992188 409.882812 431.871094 410.082031 432.769531 410.195312 C 433.667969 410.304688 434.570312 410.320312 435.472656 410.246094 C 436.375 410.171875 437.261719 410.007812 438.128906 409.753906 C 439 409.5 439.832031 409.160156 440.632812 408.734375 C 441.433594 408.308594 442.179688 407.804688 442.878906 407.226562 C 443.574219 406.648438 444.207031 406.007812 444.769531 405.300781 L 459.59375 386.769531 C 460.027344 386.230469 460.484375 385.710938 460.96875 385.21875 C 461.453125 384.722656 461.957031 384.253906 462.488281 383.804688 C 463.015625 383.359375 463.566406 382.941406 464.136719 382.550781 C 464.703125 382.15625 465.292969 381.792969 465.898438 381.457031 C 466.503906 381.121094 467.121094 380.816406 467.757812 380.542969 C 468.390625 380.265625 469.039062 380.023438 469.699219 379.8125 C 470.355469 379.597656 471.023438 379.417969 471.699219 379.273438 C 472.375 379.125 473.054688 379.011719 473.742188 378.929688 C 474.429688 378.847656 475.121094 378.800781 475.8125 378.789062 C 476.503906 378.773438 477.195312 378.792969 477.882812 378.847656 C 478.574219 378.898438 479.257812 378.988281 479.941406 379.105469 C 480.621094 379.226562 481.296875 379.378906 481.960938 379.5625 C 482.628906 379.75 483.285156 379.96875 483.929688 380.214844 C 484.574219 380.464844 485.207031 380.746094 485.824219 381.054688 C 486.445312 381.367188 487.046875 381.707031 487.628906 382.074219 C 488.214844 382.445312 488.78125 382.839844 489.328125 383.265625 L 536.929688 424.921875 C 537.085938 425.054688 537.242188 425.183594 537.398438 425.316406 C 539.675781 427.019531 541.578125 429.070312 543.105469 431.46875 C 544.628906 433.871094 545.683594 436.464844 546.261719 439.25 C 546.464844 440.449219 546.539062 441.660156 546.484375 442.878906 C 546.425781 444.09375 546.242188 445.292969 545.925781 446.46875 C 545.609375 447.648438 545.171875 448.777344 544.609375 449.859375 C 544.046875 450.941406 543.378906 451.949219 542.597656 452.886719 C 542.570312 452.921875 542.238281 453.328125 542.207031 453.367188 C 527.566406 471.679688 489.503906 484.757812 458.347656 474.257812 C 457.53125 473.980469 456.699219 473.769531 455.847656 473.628906 C 448.984375 470.84375 442.457031 467.425781 436.261719 463.371094 C 435.742188 462.816406 435.183594 462.308594 434.582031 461.84375 C 424.125 453.859375 413.96875 445.507812 404.117188 436.792969 C 394.261719 428.074219 384.730469 419.015625 375.53125 409.613281 C 366.328125 400.207031 357.472656 390.488281 348.972656 380.445312 C 340.46875 370.40625 332.339844 360.070312 324.582031 349.445312 C 316.824219 338.820312 309.457031 327.929688 302.484375 316.769531 C 295.511719 305.613281 288.949219 294.222656 282.796875 282.59375 C 276.640625 270.960938 270.914062 259.125 265.613281 247.085938 C 260.316406 235.042969 255.453125 222.824219 251.035156 210.433594 C 248.808594 204.25 247.386719 197.882812 246.769531 191.339844 C 246.152344 184.792969 246.363281 178.277344 247.394531 171.785156 Z M 247.394531 171.785156 "/></g></svg>