<svg xmlns="http://www.w3.org/2000/svg" xmlns:xlink="http://www.w3.org/1999/xlink" width="1080" zoomAndPan="magnify" viewBox="0 0 810 809.999993" height="1080" preserveAspectRatio="xMidYMid meet" version="1.2"><defs><clipPath id="cfc1238177"><path d="M 86 70.167969 L 663 70.167969 L 663 450 L 86 450 Z M 86 70.167969 "/></clipPath><clipPath id="1a3f3c7bbf"><path d="M 96 700 L 724 700 L 724 739.917969 L 96 739.917969 Z M 96 700 "/></clipPath></defs><g id="27f77b62a1"><g clip-rule="nonzero" clip-path="url(#cfc1238177)"><path style=" stroke:none;fill-rule:nonzero;fill:#274d90;fill-opacity:1;" d="M 86.667969 444.257812 C 86.433594 443.226562 87.050781 442.257812 88.050781 442.023438 L 88.136719 441.992188 C 88.136719 441.992188 90.816406 441.375 95.8125 440.226562 C 100.84375 439.109375 108.167969 437.550781 117.402344 435.816406 C 122.046875 435.050781 127.105469 433.523438 132.605469 432.257812 C 138.132812 430.964844 144.074219 429.582031 150.429688 428.199219 C 156.664062 426.492188 163.339844 424.667969 170.367188 422.757812 C 173.867188 421.816406 177.457031 420.875 181.132812 419.90625 C 184.75 418.789062 188.453125 417.613281 192.25 416.40625 C 207.453125 411.996094 223.570312 406.199219 240.539062 400.140625 C 248.921875 396.730469 257.597656 393.464844 266.359375 389.996094 C 275.035156 386.144531 284.007812 382.613281 293.0625 378.730469 C 302.003906 374.671875 311.210938 370.761719 320.445312 366.554688 C 325.03125 364.351562 329.621094 362.144531 334.296875 360 L 341.324219 356.761719 C 343.648438 355.644531 345.941406 354.382812 348.238281 353.234375 C 357.441406 348.410156 366.882812 343.792969 375.941406 338.351562 C 380.5 335.734375 385.085938 333.089844 389.644531 330.382812 L 403.054688 321.824219 C 420.964844 310.414062 438.113281 297.796875 454.847656 285.121094 C 471.257812 272.035156 487.402344 259.066406 502.285156 245.59375 C 517.402344 232.390625 531.222656 218.714844 544.371094 205.773438 C 557.28125 192.597656 569.339844 179.980469 580.011719 167.835938 C 590.75 155.808594 600.335938 144.484375 608.601562 134.308594 C 616.863281 124.105469 623.894531 115.015625 629.570312 107.488281 C 631.511719 104.898438 633.304688 102.515625 634.921875 100.3125 C 634.214844 100.605469 633.507812 100.929688 632.804688 101.222656 C 628.863281 102.898438 624.894531 104.515625 620.894531 106.046875 C 616.921875 107.664062 612.894531 109.105469 608.863281 110.632812 C 600.777344 113.546875 592.601562 116.308594 584.308594 118.808594 C 580.160156 120.015625 576.015625 121.25 571.777344 122.28125 C 567.542969 123.367188 563.308594 124.398438 558.957031 125.191406 C 562.308594 122.339844 565.808594 119.691406 569.308594 117.105469 C 572.808594 114.488281 576.367188 112.015625 579.953125 109.574219 C 587.101562 104.722656 594.425781 100.136719 601.804688 95.722656 C 605.511719 93.578125 609.1875 91.371094 612.953125 89.28125 C 616.6875 87.195312 620.453125 85.136719 624.214844 83.136719 C 628.011719 81.078125 631.832031 79.136719 635.628906 77.195312 C 639.421875 75.226562 643.304688 73.417969 647.125 71.519531 C 648.980469 70.621094 651.066406 70.246094 653.242188 70.542969 C 659.039062 71.335938 663.097656 76.667969 662.300781 82.460938 L 662.242188 82.8125 C 661.625 87.3125 660.800781 91.78125 660.097656 96.28125 C 659.332031 100.78125 658.449219 105.222656 657.625 109.691406 C 656.714844 114.164062 655.832031 118.632812 654.832031 123.074219 C 653.832031 127.515625 652.859375 131.957031 651.714844 136.398438 C 649.539062 145.25 647.125 154.074219 644.363281 162.835938 C 642.980469 167.246094 641.566406 171.628906 639.949219 175.984375 C 638.363281 180.335938 636.746094 184.6875 634.832031 188.980469 C 634.304688 184.277344 634.097656 179.660156 633.921875 175.042969 C 633.746094 170.394531 633.746094 165.777344 633.746094 161.1875 C 633.773438 151.984375 634.214844 142.835938 634.832031 133.75 C 635.097656 129.191406 635.507812 124.664062 635.921875 120.105469 C 636.304688 115.839844 636.804688 111.574219 637.273438 107.3125 C 636.539062 108.546875 635.773438 109.8125 634.949219 111.132812 C 629.980469 119.25 623.746094 129.015625 616.277344 139.984375 C 608.777344 150.953125 600.1875 163.246094 590.246094 176.246094 C 580.453125 189.363281 569.21875 203.128906 557.164062 217.539062 C 544.867188 231.742188 531.632812 246.566406 517.195312 261.183594 C 502.902344 276.003906 487.375 290.5625 471.167969 304.914062 C 454.667969 318.972656 437.671875 333.058594 419.761719 345.96875 L 406.378906 355.761719 C 401.792969 358.851562 397.234375 361.96875 392.703125 365.117188 C 383.703125 371.554688 374.292969 377.261719 365.089844 383.171875 C 362.765625 384.613281 360.472656 386.144531 358.148438 387.527344 L 351.089844 391.613281 C 346.382812 394.347656 341.648438 396.964844 336.941406 399.613281 C 332.324219 402.347656 327.445312 404.554688 322.679688 406.90625 C 317.886719 409.199219 313.121094 411.464844 308.417969 413.757812 C 298.800781 417.90625 289.152344 421.582031 279.769531 425.167969 C 270.214844 428.464844 260.714844 431.226562 251.566406 434.023438 C 246.980469 435.492188 242.304688 436.402344 237.773438 437.523438 C 233.246094 438.550781 228.773438 439.609375 224.363281 440.640625 C 222.15625 441.140625 219.980469 441.609375 217.835938 442.082031 C 215.628906 442.460938 213.453125 442.816406 211.304688 443.167969 C 207.011719 443.84375 202.804688 444.492188 198.660156 445.167969 C 194.542969 445.785156 190.484375 446.402344 186.542969 446.992188 C 182.542969 447.34375 178.660156 447.667969 174.867188 447.992188 C 167.28125 448.550781 160.101562 449.199219 153.367188 449.492188 C 139.78125 449.550781 128.046875 449.550781 118.371094 448.960938 C 108.726562 448.109375 101.167969 447.316406 96.050781 446.699219 C 90.902344 446.078125 88.195312 445.667969 88.195312 445.667969 C 87.460938 445.550781 86.816406 445.019531 86.667969 444.257812 "/></g><path style=" stroke:none;fill-rule:nonzero;fill:#274d90;fill-opacity:1;" d="M 567.984375 706.972656 L 665.832031 706.972656 L 665.832031 263.652344 L 567.984375 263.652344 L 567.984375 706.972656 "/><path style=" stroke:none;fill-rule:nonzero;fill:#274d90;fill-opacity:1;" d="M 433.464844 706.972656 L 531.28125 706.972656 L 531.28125 364.761719 L 433.464844 364.761719 L 433.464844 706.972656 "/><path style=" stroke:none;fill-rule:nonzero;fill:#274d90;fill-opacity:1;" d="M 295.886719 706.972656 L 393.734375 706.972656 L 393.734375 435.082031 L 295.886719 435.082031 L 295.886719 706.972656 "/><path style=" stroke:none;fill-rule:nonzero;fill:#274d90;fill-opacity:1;" d="M 158.28125 706.972656 L 256.125 706.972656 L 256.125 509.574219 L 158.28125 509.574219 L 158.28125 706.972656 "/><path style=" stroke:none;fill-rule:nonzero;fill:#274d90;fill-opacity:1;" d="M 722.886719 735.5 L 101.226562 735.5 L 101.226562 704.941406 L 722.886719 704.941406 L 722.886719 735.5 "/><g clip-rule="nonzero" clip-path="url(#1a3f3c7bbf)"><path style=" stroke:none;fill-rule:nonzero;fill:#ffffff;fill-opacity:1;" d="M 722.886719 735.5 L 722.386719 704.941406 L 722.886719 705.441406 L 645.183594 706.441406 C 619.273438 706.707031 593.367188 707.148438 567.484375 707.296875 L 412.054688 708.441406 L 373.207031 708.679688 L 334.355469 708.765625 L 256.65625 708.972656 L 101.226562 709.355469 L 105.636719 704.941406 L 105.546875 735.5 L 101.226562 731.175781 L 256.65625 731.558594 L 334.355469 731.765625 L 412.054688 732.234375 L 567.484375 733.441406 L 645.183594 734.382812 Z M 722.886719 735.5 L 645.183594 736.617188 L 567.484375 737.558594 L 412.054688 738.765625 L 334.355469 739.265625 L 256.65625 739.46875 L 101.226562 739.851562 C 98.84375 739.851562 96.902344 737.910156 96.902344 735.527344 L 96.902344 735.5 L 96.8125 704.941406 C 96.8125 702.503906 98.785156 700.53125 101.195312 700.53125 L 101.226562 700.53125 L 256.65625 700.914062 L 334.355469 701.089844 L 373.207031 701.207031 L 412.054688 701.445312 L 567.484375 702.589844 C 593.367188 702.738281 619.273438 703.179688 645.183594 703.445312 L 722.886719 704.445312 C 723.179688 704.445312 723.386719 704.648438 723.386719 704.914062 L 723.386719 704.941406 L 722.886719 735.5 "/></g></g></svg>