<svg xmlns="http://www.w3.org/2000/svg" xmlns:xlink="http://www.w3.org/1999/xlink" width="1080" zoomAndPan="magnify" viewBox="0 0 810 809.999993" height="1080" preserveAspectRatio="xMidYMid meet" version="1.2"><defs><clipPath id="996670c32d"><path d="M 249.109375 164.339844 L 396.609375 164.339844 L 396.609375 317 L 249.109375 317 Z M 249.109375 164.339844 "/></clipPath><clipPath id="339b4192d4"><path d="M 268.609375 164.339844 L 377.109375 164.339844 C 382.28125 164.339844 387.242188 166.394531 390.898438 170.050781 C 394.554688 173.707031 396.609375 178.667969 396.609375 183.839844 L 396.609375 297.328125 C 396.609375 302.5 394.554688 307.460938 390.898438 311.117188 C 387.242188 314.773438 382.28125 316.828125 377.109375 316.828125 L 268.609375 316.828125 C 263.4375 316.828125 258.480469 314.773438 254.824219 311.117188 C 251.164062 307.460938 249.109375 302.5 249.109375 297.328125 L 249.109375 183.839844 C 249.109375 178.667969 251.164062 173.707031 254.824219 170.050781 C 258.480469 166.394531 263.4375 164.339844 268.609375 164.339844 Z M 268.609375 164.339844 "/></clipPath><clipPath id="81f1d1dc40"><path d="M 0.109375 0.339844 L 147.609375 0.339844 L 147.609375 153 L 0.109375 153 Z M 0.109375 0.339844 "/></clipPath><clipPath id="c1a57651c3"><path d="M 19.609375 0.339844 L 128.109375 0.339844 C 133.28125 0.339844 138.242188 2.394531 141.898438 6.050781 C 145.554688 9.707031 147.609375 14.667969 147.609375 19.839844 L 147.609375 133.328125 C 147.609375 138.5 145.554688 143.460938 141.898438 147.117188 C 138.242188 150.773438 133.28125 152.828125 128.109375 152.828125 L 19.609375 152.828125 C 14.4375 152.828125 9.480469 150.773438 5.824219 147.117188 C 2.164062 143.460938 0.109375 138.5 0.109375 133.328125 L 0.109375 19.839844 C 0.109375 14.667969 2.164062 9.707031 5.824219 6.050781 C 9.480469 2.394531 14.4375 0.339844 19.609375 0.339844 Z M 19.609375 0.339844 "/></clipPath><clipPath id="6a58899dab"><rect x="0" width="148" y="0" height="153"/></clipPath><clipPath id="d41ad569ef"><path d="M 249.109375 335.851562 L 396.609375 335.851562 L 396.609375 488.535156 L 249.109375 488.535156 Z M 249.109375 335.851562 "/></clipPath><clipPath id="14b4945c19"><path d="M 268.609375 335.851562 L 377.109375 335.851562 C 382.28125 335.851562 387.242188 337.90625 390.898438 341.5625 C 394.554688 345.21875 396.609375 350.179688 396.609375 355.351562 L 396.609375 468.839844 C 396.609375 474.011719 394.554688 478.972656 390.898438 482.628906 C 387.242188 486.285156 382.28125 488.339844 377.109375 488.339844 L 268.609375 488.339844 C 263.4375 488.339844 258.480469 486.285156 254.824219 482.628906 C 251.164062 478.972656 249.109375 474.011719 249.109375 468.839844 L 249.109375 355.351562 C 249.109375 350.179688 251.164062 345.21875 254.824219 341.5625 C 258.480469 337.90625 263.4375 335.851562 268.609375 335.851562 Z M 268.609375 335.851562 "/></clipPath><clipPath id="073993b4de"><path d="M 0.109375 0.851562 L 147.609375 0.851562 L 147.609375 153.398438 L 0.109375 153.398438 Z M 0.109375 0.851562 "/></clipPath><clipPath id="b28b45b50e"><path d="M 19.609375 0.851562 L 128.109375 0.851562 C 133.28125 0.851562 138.242188 2.90625 141.898438 6.5625 C 145.554688 10.21875 147.609375 15.179688 147.609375 20.351562 L 147.609375 133.839844 C 147.609375 139.011719 145.554688 143.972656 141.898438 147.628906 C 138.242188 151.285156 133.28125 153.339844 128.109375 153.339844 L 19.609375 153.339844 C 14.4375 153.339844 9.480469 151.285156 5.824219 147.628906 C 2.164062 143.972656 0.109375 139.011719 0.109375 133.839844 L 0.109375 20.351562 C 0.109375 15.179688 2.164062 10.21875 5.824219 6.5625 C 9.480469 2.90625 14.4375 0.851562 19.609375 0.851562 Z M 19.609375 0.851562 "/></clipPath><clipPath id="d489d6a436"><rect x="0" width="148" y="0" height="154"/></clipPath><clipPath id="826ad510ff"><path d="M 413.390625 335.851562 L 560.890625 335.851562 L 560.890625 488.535156 L 413.390625 488.535156 Z M 413.390625 335.851562 "/></clipPath><clipPath id="3225f54053"><path d="M 432.890625 335.851562 L 541.390625 335.851562 C 546.558594 335.851562 551.519531 337.90625 555.175781 341.5625 C 558.835938 345.21875 560.890625 350.179688 560.890625 355.351562 L 560.890625 468.839844 C 560.890625 474.011719 558.835938 478.972656 555.175781 482.628906 C 551.519531 486.285156 546.558594 488.339844 541.390625 488.339844 L 432.890625 488.339844 C 427.71875 488.339844 422.757812 486.285156 419.101562 482.628906 C 415.445312 478.972656 413.390625 474.011719 413.390625 468.839844 L 413.390625 355.351562 C 413.390625 350.179688 415.445312 345.21875 419.101562 341.5625 C 422.757812 337.90625 427.71875 335.851562 432.890625 335.851562 Z M 432.890625 335.851562 "/></clipPath><clipPath id="66c0381e9b"><path d="M 0.390625 0.851562 L 147.890625 0.851562 L 147.890625 153.398438 L 0.390625 153.398438 Z M 0.390625 0.851562 "/></clipPath><clipPath id="5cdbf46f3d"><path d="M 19.890625 0.851562 L 128.390625 0.851562 C 133.558594 0.851562 138.519531 2.90625 142.175781 6.5625 C 145.835938 10.21875 147.890625 15.179688 147.890625 20.351562 L 147.890625 133.839844 C 147.890625 139.011719 145.835938 143.972656 142.175781 147.628906 C 138.519531 151.285156 133.558594 153.339844 128.390625 153.339844 L 19.890625 153.339844 C 14.71875 153.339844 9.757812 151.285156 6.101562 147.628906 C 2.445312 143.972656 0.390625 139.011719 0.390625 133.839844 L 0.390625 20.351562 C 0.390625 15.179688 2.445312 10.21875 6.101562 6.5625 C 9.757812 2.90625 14.71875 0.851562 19.890625 0.851562 Z M 19.890625 0.851562 "/></clipPath><clipPath id="579f4b4a01"><rect x="0" width="148" y="0" height="154"/></clipPath><clipPath id="d0ab39af72"><rect x="0" width="469" y="0" height="186"/></clipPath></defs><g id="6fc054e4fa"><g clip-rule="nonzero" clip-path="url(#996670c32d)"><g clip-rule="nonzero" clip-path="url(#339b4192d4)"><g transform="matrix(1,0,0,1,249,164)"><g clip-path="url(#6a58899dab)"><g clip-rule="nonzero" clip-path="url(#81f1d1dc40)"><g clip-rule="nonzero" clip-path="url(#c1a57651c3)"><path style=" stroke:none;fill-rule:nonzero;fill:#316dbd;fill-opacity:1;" d="M 0.109375 0.339844 L 147.609375 0.339844 L 147.609375 153.023438 L 0.109375 153.023438 Z M 0.109375 0.339844 "/></g></g></g></g></g></g><g clip-rule="nonzero" clip-path="url(#d41ad569ef)"><g clip-rule="nonzero" clip-path="url(#14b4945c19)"><g transform="matrix(1,0,0,1,249,335)"><g clip-path="url(#d489d6a436)"><g clip-rule="nonzero" clip-path="url(#073993b4de)"><g clip-rule="nonzero" clip-path="url(#b28b45b50e)"><path style=" stroke:none;fill-rule:nonzero;fill:#7ed957;fill-opacity:1;" d="M 0.109375 0.851562 L 147.609375 0.851562 L 147.609375 153.535156 L 0.109375 153.535156 Z M 0.109375 0.851562 "/></g></g></g></g></g></g><g clip-rule="nonzero" clip-path="url(#826ad510ff)"><g clip-rule="nonzero" clip-path="url(#3225f54053)"><g transform="matrix(1,0,0,1,413,335)"><g clip-path="url(#579f4b4a01)"><g clip-rule="nonzero" clip-path="url(#66c0381e9b)"><g clip-rule="nonzero" clip-path="url(#5cdbf46f3d)"><path style=" stroke:none;fill-rule:nonzero;fill:#8c52ff;fill-opacity:1;" d="M 0.390625 0.851562 L 147.890625 0.851562 L 147.890625 153.535156 L 0.390625 153.535156 Z M 0.390625 0.851562 "/></g></g></g></g></g></g><g transform="matrix(1,0,0,1,171,474)"><g clip-path="url(#d0ab39af72)"><g style="fill:#316dbd;fill-opacity:1;"><g transform="translate(0.907464, 137.992929)"><path style="stroke:none" d="M 30.6875 -97.484375 L 30.6875 0 L 8.171875 0 L 8.171875 -97.484375 Z M 30.6875 -97.484375 "/></g></g><g style="fill:#316dbd;fill-opacity:1;"><g transform="translate(39.76596, 137.992929)"><path style="stroke:none" d="M 41.625 1.046875 C 34.425781 1.046875 27.945312 -0.488281 22.1875 -3.5625 C 16.4375 -6.632812 11.914062 -11.023438 8.625 -16.734375 C 5.332031 -22.441406 3.6875 -29.113281 3.6875 -36.75 C 3.6875 -44.300781 5.351562 -50.953125 8.6875 -56.703125 C 12.03125 -62.460938 16.597656 -66.878906 22.390625 -69.953125 C 28.191406 -73.023438 34.691406 -74.5625 41.890625 -74.5625 C 49.085938 -74.5625 55.582031 -73.023438 61.375 -69.953125 C 67.175781 -66.878906 71.742188 -62.460938 75.078125 -56.703125 C 78.421875 -50.953125 80.09375 -44.300781 80.09375 -36.75 C 80.09375 -29.195312 78.398438 -22.546875 75.015625 -16.796875 C 71.640625 -11.046875 67.03125 -6.632812 61.1875 -3.5625 C 55.351562 -0.488281 48.832031 1.046875 41.625 1.046875 Z M 41.625 -18.4375 C 45.925781 -18.4375 49.59375 -20.015625 52.625 -23.171875 C 55.65625 -26.335938 57.171875 -30.863281 57.171875 -36.75 C 57.171875 -42.632812 55.695312 -47.15625 52.75 -50.3125 C 49.8125 -53.476562 46.191406 -55.0625 41.890625 -55.0625 C 37.503906 -55.0625 33.859375 -53.503906 30.953125 -50.390625 C 28.054688 -47.273438 26.609375 -42.726562 26.609375 -36.75 C 26.609375 -30.863281 28.035156 -26.335938 30.890625 -23.171875 C 33.742188 -20.015625 37.320312 -18.4375 41.625 -18.4375 Z M 41.625 -18.4375 "/></g></g><g style="fill:#316dbd;fill-opacity:1;"><g transform="translate(123.673996, 137.992929)"><path style="stroke:none" d="M 41.625 1.046875 C 34.425781 1.046875 27.945312 -0.488281 22.1875 -3.5625 C 16.4375 -6.632812 11.914062 -11.023438 8.625 -16.734375 C 5.332031 -22.441406 3.6875 -29.113281 3.6875 -36.75 C 3.6875 -44.300781 5.351562 -50.953125 8.6875 -56.703125 C 12.03125 -62.460938 16.597656 -66.878906 22.390625 -69.953125 C 28.191406 -73.023438 34.691406 -74.5625 41.890625 -74.5625 C 49.085938 -74.5625 55.582031 -73.023438 61.375 -69.953125 C 67.175781 -66.878906 71.742188 -62.460938 75.078125 -56.703125 C 78.421875 -50.953125 80.09375 -44.300781 80.09375 -36.75 C 80.09375 -29.195312 78.398438 -22.546875 75.015625 -16.796875 C 71.640625 -11.046875 67.03125 -6.632812 61.1875 -3.5625 C 55.351562 -0.488281 48.832031 1.046875 41.625 1.046875 Z M 41.625 -18.4375 C 45.925781 -18.4375 49.59375 -20.015625 52.625 -23.171875 C 55.65625 -26.335938 57.171875 -30.863281 57.171875 -36.75 C 57.171875 -42.632812 55.695312 -47.15625 52.75 -50.3125 C 49.8125 -53.476562 46.191406 -55.0625 41.890625 -55.0625 C 37.503906 -55.0625 33.859375 -53.503906 30.953125 -50.390625 C 28.054688 -47.273438 26.609375 -42.726562 26.609375 -36.75 C 26.609375 -30.863281 28.035156 -26.335938 30.890625 -23.171875 C 33.742188 -20.015625 37.320312 -18.4375 41.625 -18.4375 Z M 41.625 -18.4375 "/></g></g><g style="fill:#316dbd;fill-opacity:1;"><g transform="translate(207.582033, 137.992929)"><path style="stroke:none" d="M 101.96875 -74.296875 C 111.09375 -74.296875 118.351562 -71.53125 123.75 -66 C 129.15625 -60.46875 131.859375 -52.785156 131.859375 -42.953125 L 131.859375 0 L 109.46875 0 L 109.46875 -39.921875 C 109.46875 -44.660156 108.21875 -48.320312 105.71875 -50.90625 C 103.21875 -53.5 99.769531 -54.796875 95.375 -54.796875 C 90.976562 -54.796875 87.53125 -53.5 85.03125 -50.90625 C 82.53125 -48.320312 81.28125 -44.660156 81.28125 -39.921875 L 81.28125 0 L 58.890625 0 L 58.890625 -39.921875 C 58.890625 -44.660156 57.632812 -48.320312 55.125 -50.90625 C 52.625 -53.5 49.179688 -54.796875 44.796875 -54.796875 C 40.398438 -54.796875 36.945312 -53.5 34.4375 -50.90625 C 31.9375 -48.320312 30.6875 -44.660156 30.6875 -39.921875 L 30.6875 0 L 8.171875 0 L 8.171875 -73.5 L 30.6875 -73.5 L 30.6875 -64.28125 C 32.976562 -67.351562 35.96875 -69.789062 39.65625 -71.59375 C 43.34375 -73.394531 47.515625 -74.296875 52.171875 -74.296875 C 57.703125 -74.296875 62.640625 -73.109375 66.984375 -70.734375 C 71.328125 -68.367188 74.734375 -64.988281 77.203125 -60.59375 C 79.742188 -64.632812 83.207031 -67.925781 87.59375 -70.46875 C 91.988281 -73.019531 96.78125 -74.296875 101.96875 -74.296875 Z M 101.96875 -74.296875 "/></g></g><g style="fill:#316dbd;fill-opacity:1;"><g transform="translate(347.077485, 137.992929)"><path style="stroke:none" d="M 19.5 -81.140625 C 15.539062 -81.140625 12.3125 -82.300781 9.8125 -84.625 C 7.3125 -86.957031 6.0625 -89.835938 6.0625 -93.265625 C 6.0625 -96.773438 7.3125 -99.691406 9.8125 -102.015625 C 12.3125 -104.347656 15.539062 -105.515625 19.5 -105.515625 C 23.363281 -105.515625 26.546875 -104.347656 29.046875 -102.015625 C 31.546875 -99.691406 32.796875 -96.773438 32.796875 -93.265625 C 32.796875 -89.835938 31.546875 -86.957031 29.046875 -84.625 C 26.546875 -82.300781 23.363281 -81.140625 19.5 -81.140625 Z M 30.6875 -73.5 L 30.6875 0 L 8.171875 0 L 8.171875 -73.5 Z M 30.6875 -73.5 "/></g></g><g style="fill:#316dbd;fill-opacity:1;"><g transform="translate(385.935982, 137.992929)"><path style="stroke:none" d="M 77.453125 -37.9375 C 77.453125 -35.832031 77.320312 -33.640625 77.0625 -31.359375 L 26.078125 -31.359375 C 26.429688 -26.785156 27.898438 -23.289062 30.484375 -20.875 C 33.078125 -18.457031 36.265625 -17.25 40.046875 -17.25 C 45.671875 -17.25 49.578125 -19.625 51.765625 -24.375 L 75.75 -24.375 C 74.519531 -19.539062 72.300781 -15.191406 69.09375 -11.328125 C 65.882812 -7.460938 61.863281 -4.429688 57.03125 -2.234375 C 52.207031 -0.046875 46.8125 1.046875 40.84375 1.046875 C 33.632812 1.046875 27.21875 -0.488281 21.59375 -3.5625 C 15.976562 -6.632812 11.585938 -11.023438 8.421875 -16.734375 C 5.265625 -22.441406 3.6875 -29.113281 3.6875 -36.75 C 3.6875 -44.394531 5.242188 -51.070312 8.359375 -56.78125 C 11.484375 -62.488281 15.851562 -66.878906 21.46875 -69.953125 C 27.09375 -73.023438 33.550781 -74.5625 40.84375 -74.5625 C 47.957031 -74.5625 54.28125 -73.066406 59.8125 -70.078125 C 65.34375 -67.097656 69.664062 -62.835938 72.78125 -57.296875 C 75.894531 -51.765625 77.453125 -45.3125 77.453125 -37.9375 Z M 54.40625 -43.875 C 54.40625 -47.726562 53.085938 -50.796875 50.453125 -53.078125 C 47.816406 -55.367188 44.523438 -56.515625 40.578125 -56.515625 C 36.796875 -56.515625 33.609375 -55.414062 31.015625 -53.21875 C 28.429688 -51.019531 26.832031 -47.90625 26.21875 -43.875 Z M 54.40625 -43.875 "/></g></g></g></g></g></svg>