<svg xmlns="http://www.w3.org/2000/svg" xmlns:xlink="http://www.w3.org/1999/xlink" width="1080" zoomAndPan="magnify" viewBox="0 0 810 809.999993" height="1080" preserveAspectRatio="xMidYMid meet" version="1.2"><g id="a0ea31eea6"><path style=" stroke:none;fill-rule:nonzero;fill:#274d90;fill-opacity:1;" d="M 565.503906 390.378906 C 562.835938 384.679688 560.339844 378.902344 557.863281 373.386719 C 581.582031 355.296875 588.210938 336.082031 578.707031 314.707031 C 569.199219 293.332031 550.203125 285.792969 519.070312 291.546875 C 511.632812 275.828125 504.097656 259.957031 496.609375 244.066406 C 481.914062 212.863281 467.496094 181.535156 452.476562 150.496094 C 452.0625 149.625 451.613281 148.773438 451.128906 147.945312 C 450.640625 147.113281 450.121094 146.304688 449.566406 145.519531 C 449.011719 144.734375 448.421875 143.976562 447.800781 143.242188 C 447.179688 142.507812 446.527344 141.800781 445.84375 141.121094 C 445.164062 140.445312 444.453125 139.796875 443.714844 139.179688 C 442.976562 138.5625 442.210938 137.980469 441.421875 137.429688 C 440.632812 136.878906 439.824219 136.363281 438.988281 135.882812 C 438.15625 135.402344 437.304688 134.957031 436.429688 134.550781 C 435.558594 134.144531 434.671875 133.773438 433.769531 133.445312 C 432.863281 133.113281 431.949219 132.824219 431.019531 132.574219 C 430.089844 132.320312 429.152344 132.109375 428.207031 131.941406 C 427.257812 131.769531 426.308594 131.640625 425.347656 131.554688 C 424.390625 131.46875 423.429688 131.421875 422.46875 131.417969 C 421.507812 131.410156 420.546875 131.449219 419.585938 131.527344 C 418.628906 131.605469 417.675781 131.726562 416.726562 131.886719 C 415.777344 132.046875 414.835938 132.25 413.90625 132.488281 C 412.976562 132.730469 412.054688 133.015625 411.148438 133.335938 C 410.242188 133.65625 409.351562 134.015625 408.476562 134.414062 C 407.601562 134.8125 406.742188 135.25 405.90625 135.722656 C 405.066406 136.195312 404.25 136.703125 403.457031 137.246094 C 402.664062 137.789062 401.894531 138.367188 401.148438 138.976562 C 400.40625 139.585938 399.6875 140.226562 399 140.898438 C 398.3125 141.570312 397.652344 142.269531 397.023438 142.996094 C 396.394531 143.726562 395.800781 144.480469 395.238281 145.261719 C 394.671875 146.039062 394.144531 146.84375 393.652344 147.667969 C 393.15625 148.496094 392.699219 149.339844 392.28125 150.207031 C 391.859375 151.070312 391.476562 151.953125 391.132812 152.851562 C 390.789062 153.75 390.484375 154.660156 390.21875 155.585938 C 389.953125 156.511719 389.726562 157.445312 389.542969 158.390625 C 389.355469 159.332031 389.210938 160.285156 389.109375 161.238281 C 389.007812 162.195312 388.945312 163.15625 388.925781 164.117188 C 388.90625 165.078125 388.929688 166.039062 388.992188 167 C 393.980469 199.140625 383.703125 227.359375 367.53125 253.871094 C 361.453125 263.730469 354.773438 273.160156 347.484375 282.160156 C 340.195312 291.160156 332.359375 299.65625 323.976562 307.648438 C 315.597656 315.640625 306.738281 323.066406 297.402344 329.917969 C 288.066406 336.773438 278.328125 343 268.191406 348.601562 C 231.308594 369.507812 192.453125 387.109375 154.183594 405.605469 C 105.722656 428.933594 83.71875 479.046875 100.46875 527.808594 C 100.976562 529.25 101.519531 530.679688 102.097656 532.09375 C 102.671875 533.507812 103.28125 534.910156 103.925781 536.296875 C 104.566406 537.683594 105.242188 539.050781 105.949219 540.40625 C 106.65625 541.761719 107.394531 543.097656 108.164062 544.417969 C 108.933594 545.738281 109.734375 547.039062 110.566406 548.320312 C 111.394531 549.601562 112.257812 550.863281 113.148438 552.105469 C 114.039062 553.347656 114.957031 554.566406 115.90625 555.765625 C 116.851562 556.964844 117.828125 558.140625 118.832031 559.292969 C 119.835938 560.445312 120.867188 561.570312 121.921875 562.675781 C 122.980469 563.777344 124.0625 564.855469 125.167969 565.910156 C 126.277344 566.960938 127.40625 567.988281 128.5625 568.988281 C 129.71875 569.988281 130.898438 570.960938 132.097656 571.902344 C 133.300781 572.847656 134.523438 573.761719 135.769531 574.648438 C 137.011719 575.535156 138.277344 576.390625 139.5625 577.21875 C 140.847656 578.042969 142.152344 578.839844 143.472656 579.605469 C 144.796875 580.371094 146.136719 581.105469 147.492188 581.808594 C 148.851562 582.507812 150.222656 583.179688 151.613281 583.816406 C 153 584.453125 154.402344 585.058594 155.820312 585.628906 C 157.238281 586.203125 158.667969 586.738281 160.109375 587.242188 C 161.550781 587.746094 163.003906 588.21875 164.46875 588.652344 C 165.933594 589.089844 167.40625 589.488281 168.890625 589.855469 C 170.375 590.222656 171.867188 590.550781 173.363281 590.847656 C 174.863281 591.144531 176.367188 591.40625 177.878906 591.628906 C 179.390625 591.855469 180.90625 592.042969 182.425781 592.199219 C 183.949219 592.351562 185.46875 592.46875 186.996094 592.550781 C 188.523438 592.632812 190.046875 592.679688 191.578125 592.6875 C 193.105469 592.699219 194.632812 592.671875 196.160156 592.609375 C 197.683594 592.546875 199.210938 592.449219 200.730469 592.316406 C 202.253906 592.183594 203.773438 592.011719 205.285156 591.808594 C 206.800781 591.601562 208.308594 591.363281 209.8125 591.085938 C 211.3125 590.808594 212.808594 590.496094 214.296875 590.148438 C 215.785156 589.804688 217.265625 589.421875 218.734375 589.003906 C 224.972656 587.085938 228.039062 589.257812 231.207031 594.386719 C 240.480469 609.417969 250.269531 624.128906 259.84375 638.976562 C 274.859375 662.253906 289.738281 685.625 304.917969 708.789062 C 305.902344 710.441406 307.007812 712.003906 308.238281 713.480469 C 309.464844 714.960938 310.804688 716.332031 312.246094 717.601562 C 313.691406 718.871094 315.222656 720.019531 316.847656 721.046875 C 318.472656 722.074219 320.164062 722.972656 321.929688 723.734375 C 323.695312 724.496094 325.507812 725.117188 327.367188 725.597656 C 329.230469 726.078125 331.117188 726.410156 333.027344 726.59375 C 334.941406 726.777344 336.859375 726.808594 338.777344 726.691406 C 340.695312 726.578125 342.59375 726.3125 344.46875 725.898438 C 346.285156 725.710938 348.078125 725.378906 349.839844 724.902344 C 351.601562 724.421875 353.3125 723.804688 354.972656 723.042969 C 356.632812 722.285156 358.222656 721.394531 359.738281 720.375 C 361.253906 719.351562 362.675781 718.214844 364.003906 716.960938 C 365.332031 715.710938 366.550781 714.355469 367.65625 712.902344 C 368.761719 711.449219 369.742188 709.917969 370.597656 708.304688 C 371.453125 706.6875 372.171875 705.015625 372.753906 703.285156 C 373.335938 701.554688 373.769531 699.785156 374.0625 697.984375 C 374.710938 692.695312 374.660156 687.417969 373.90625 682.144531 C 373.152344 676.875 371.722656 671.792969 369.617188 666.898438 C 357.238281 637.894531 343.128906 609.636719 329.730469 581.167969 C 364.6875 561.601562 368.042969 555.910156 360.75 528.976562 C 361.96875 528.039062 363.289062 527.273438 364.707031 526.679688 C 374.738281 523.414062 384.921875 520.699219 395.246094 518.53125 C 405.574219 516.363281 415.988281 514.757812 426.488281 513.714844 C 436.988281 512.671875 447.511719 512.195312 458.0625 512.289062 C 468.617188 512.378906 479.132812 513.039062 489.613281 514.261719 C 496.824219 514.945312 503.929688 516.222656 510.933594 518.085938 C 517.933594 519.953125 524.730469 522.382812 531.328125 525.378906 C 537.925781 528.375 544.230469 531.894531 550.242188 535.9375 C 556.253906 539.980469 561.890625 544.492188 567.152344 549.472656 C 581.707031 564.15625 599.101562 566.707031 613.554688 556.445312 C 627.710938 546.386719 631.015625 529.722656 622.355469 511.238281 C 603.410156 470.9375 584.457031 430.652344 565.503906 390.378906 Z M 556.808594 323.46875 C 561.898438 333.527344 559.15625 342.078125 546.992188 350.863281 L 529.890625 314.605469 C 543.546875 310.867188 551.957031 313.953125 556.808594 323.46875 Z M 207.441406 566.941406 C 205.371094 567.46875 203.28125 567.898438 201.167969 568.234375 C 199.058594 568.574219 196.9375 568.8125 194.804688 568.957031 C 192.671875 569.097656 190.539062 569.144531 188.402344 569.09375 C 186.265625 569.042969 184.132812 568.894531 182.011719 568.652344 C 179.886719 568.40625 177.78125 568.066406 175.6875 567.628906 C 173.59375 567.191406 171.527344 566.664062 169.484375 566.039062 C 167.4375 565.414062 165.425781 564.695312 163.449219 563.890625 C 161.46875 563.082031 159.53125 562.1875 157.632812 561.203125 C 155.738281 560.21875 153.886719 559.148438 152.085938 557.996094 C 150.289062 556.84375 148.542969 555.613281 146.855469 554.300781 C 145.167969 552.992188 143.542969 551.605469 141.980469 550.148438 C 140.417969 548.6875 138.925781 547.164062 137.503906 545.566406 C 136.078125 543.972656 134.730469 542.316406 133.460938 540.601562 C 132.1875 538.882812 130.996094 537.109375 129.882812 535.285156 C 128.773438 533.460938 127.746094 531.585938 126.804688 529.667969 C 125.863281 527.75 125.011719 525.789062 124.25 523.792969 C 123.398438 521.835938 122.636719 519.847656 121.964844 517.820312 C 121.289062 515.796875 120.707031 513.746094 120.214844 511.667969 C 119.722656 509.59375 119.324219 507.5 119.019531 505.386719 C 118.714844 503.273438 118.503906 501.152344 118.386719 499.023438 C 118.269531 496.890625 118.246094 494.761719 118.316406 492.628906 C 118.390625 490.496094 118.554688 488.367188 118.816406 486.25 C 119.078125 484.132812 119.433594 482.03125 119.878906 479.945312 C 120.328125 477.859375 120.867188 475.796875 121.496094 473.757812 C 122.128906 471.71875 122.847656 469.710938 123.65625 467.738281 C 124.464844 465.761719 125.359375 463.828125 126.339844 461.929688 C 127.320312 460.035156 128.382812 458.1875 129.527344 456.386719 C 130.671875 454.585938 131.894531 452.839844 133.195312 451.148438 C 134.496094 449.453125 135.867188 447.824219 137.3125 446.253906 C 138.757812 444.683594 140.269531 443.179688 141.847656 441.742188 C 143.425781 440.304688 145.0625 438.941406 146.761719 437.652344 C 148.460938 436.359375 150.214844 435.148438 152.023438 434.011719 C 172.863281 421.582031 195.613281 412.300781 218.71875 400.992188 C 240.019531 446.261719 260.765625 490.269531 282.292969 535.957031 C 257.941406 547.726562 232.988281 558.054688 207.441406 566.941406 Z M 348.769531 677.183594 C 354.21875 688.796875 352.84375 697.429688 344.351562 701.203125 C 334.519531 705.570312 327.804688 701.109375 322.347656 692.566406 C 298.035156 654.449219 273.398438 616.507812 248.214844 577.46875 L 291.449219 557.015625 C 293.175781 560.042969 294.875 562.617188 296.175781 565.398438 C 313.746094 602.636719 331.277344 639.898438 348.769531 677.183594 Z M 319.253906 557.988281 C 317.578125 554.636719 315.800781 551.28125 313.386719 546.480469 L 335.867188 536.503906 C 342.558594 549.394531 340.980469 551.28125 319.253906 557.988281 Z M 603.292969 533.039062 C 602.917969 533.929688 602.40625 534.726562 601.75 535.4375 C 601.097656 536.144531 600.34375 536.722656 599.488281 537.164062 C 594.546875 536.007812 588.027344 536.460938 584.925781 533.425781 C 579.101562 527.878906 572.886719 522.820312 566.273438 518.246094 C 559.660156 513.671875 552.734375 509.636719 545.492188 506.144531 C 538.246094 502.652344 530.777344 499.742188 523.082031 497.417969 C 515.382812 495.089844 507.550781 493.375 499.585938 492.273438 C 444.261719 483.054688 390.945312 492.367188 338.734375 510.574219 C 327.089844 514.640625 315.722656 519.511719 302.992188 524.5 C 281.839844 479.53125 261.261719 435.78125 241.796875 394.453125 C 271.738281 373.597656 301.976562 355.164062 329.144531 332.980469 C 368.351562 300.96875 398.949219 261.851562 410.234375 210.933594 C 412.601562 198.316406 413.574219 185.589844 413.152344 172.757812 C 413.152344 165.75 410.777344 158.28125 419.335938 155.539062 C 429.035156 152.429688 431.28125 160.847656 434.324219 167.277344 C 465.738281 234.050781 497.140625 300.800781 528.535156 367.527344 C 551.917969 417.210938 575.308594 466.886719 598.714844 516.558594 C 599.554688 518.414062 600.164062 519.578125 601.128906 522 C 604.296875 530.007812 603.578125 532.304688 603.292969 533.058594 Z M 519.464844 136.738281 C 518.9375 135.613281 518.570312 134.4375 518.355469 133.214844 C 518.140625 131.992188 518.085938 130.765625 518.199219 129.527344 C 518.308594 128.289062 518.578125 127.089844 519.003906 125.925781 C 519.433594 124.757812 520.003906 123.667969 520.71875 122.65625 C 528.566406 110.917969 536.53125 99.183594 544.601562 87.707031 C 545.296875 86.667969 546.105469 85.730469 547.035156 84.894531 C 547.960938 84.054688 548.976562 83.34375 550.078125 82.757812 C 551.183594 82.175781 552.339844 81.734375 553.550781 81.433594 C 554.765625 81.136719 555.996094 80.992188 557.246094 81 C 558.542969 81.046875 559.816406 81.257812 561.0625 81.625 C 562.308594 81.996094 563.492188 82.515625 564.609375 83.179688 C 565.722656 83.847656 566.738281 84.644531 567.652344 85.566406 C 568.570312 86.492188 569.355469 87.515625 570.011719 88.636719 L 570.960938 90.046875 L 570.558594 91.722656 C 570.429688 92.617188 570.296875 93.523438 570.203125 94.496094 C 570.039062 97.375 569.257812 100.074219 567.859375 102.59375 C 559.894531 114.867188 551.425781 127.089844 543.394531 138.464844 C 541.960938 140.613281 540.082031 142.257812 537.761719 143.394531 C 536.660156 143.917969 535.507812 144.285156 534.308594 144.496094 C 533.105469 144.710938 531.898438 144.761719 530.683594 144.648438 C 529.46875 144.535156 528.289062 144.261719 527.148438 143.832031 C 526.007812 143.402344 524.941406 142.828125 523.957031 142.113281 C 521.992188 140.710938 520.480469 138.925781 519.429688 136.753906 Z M 737.8125 493.273438 L 736.808594 494.628906 L 735.128906 494.816406 C 734.242188 494.992188 733.351562 495.175781 732.40625 495.410156 C 729.648438 496.207031 726.855469 496.367188 724.023438 495.894531 C 709.773438 492.476562 695.445312 488.585938 682.042969 484.804688 C 679.539062 484.171875 677.363281 482.949219 675.519531 481.140625 C 674.660156 480.277344 673.933594 479.316406 673.332031 478.257812 C 672.734375 477.199219 672.285156 476.082031 671.984375 474.902344 C 671.6875 473.71875 671.550781 472.523438 671.574219 471.304688 C 671.597656 470.089844 671.78125 468.898438 672.125 467.730469 C 672.371094 466.851562 672.699219 466.003906 673.113281 465.191406 C 673.527344 464.378906 674.015625 463.613281 674.582031 462.898438 C 675.144531 462.179688 675.773438 461.527344 676.46875 460.933594 C 677.160156 460.339844 677.90625 459.820312 678.699219 459.375 C 679.496094 458.929688 680.328125 458.5625 681.195312 458.28125 C 682.0625 458 682.949219 457.804688 683.855469 457.699219 C 684.761719 457.589844 685.667969 457.570312 686.578125 457.644531 C 687.488281 457.714844 688.382812 457.875 689.257812 458.121094 C 702.957031 461.601562 716.65625 465.199219 730.175781 468.976562 C 731.390625 469.285156 732.546875 469.738281 733.648438 470.332031 C 734.75 470.929688 735.761719 471.648438 736.683594 472.496094 C 737.605469 473.34375 738.410156 474.292969 739.097656 475.339844 C 739.78125 476.386719 740.332031 477.503906 740.738281 478.6875 C 741.128906 479.925781 741.355469 481.195312 741.425781 482.496094 C 741.496094 483.792969 741.402344 485.078125 741.144531 486.355469 C 740.890625 487.628906 740.480469 488.851562 739.914062 490.023438 C 739.351562 491.195312 738.652344 492.277344 737.8125 493.273438 Z M 686.425781 267.394531 C 674.101562 275.292969 661.351562 282.945312 649.347656 290.027344 C 647.152344 291.390625 644.765625 292.113281 642.179688 292.191406 C 640.960938 292.214844 639.757812 292.074219 638.574219 291.773438 C 637.394531 291.46875 636.269531 291.019531 635.210938 290.414062 C 634.148438 289.808594 633.1875 289.074219 632.324219 288.210938 C 631.460938 287.347656 630.730469 286.386719 630.125 285.324219 C 629.664062 284.535156 629.28125 283.707031 628.984375 282.84375 C 628.683594 281.976562 628.472656 281.089844 628.347656 280.183594 C 628.222656 279.277344 628.191406 278.367188 628.246094 277.453125 C 628.300781 276.539062 628.445312 275.636719 628.679688 274.753906 C 628.914062 273.867188 629.230469 273.011719 629.632812 272.191406 C 630.035156 271.367188 630.515625 270.59375 631.070312 269.867188 C 631.628906 269.136719 632.25 268.472656 632.9375 267.867188 C 633.625 267.261719 634.363281 266.730469 635.15625 266.269531 C 647.160156 258.800781 659.238281 251.40625 671.328125 244.273438 C 672.390625 243.609375 673.519531 243.089844 674.710938 242.707031 C 675.902344 242.324219 677.125 242.09375 678.375 242.015625 C 679.625 241.9375 680.863281 242.011719 682.09375 242.242188 C 683.324219 242.472656 684.507812 242.851562 685.644531 243.378906 C 686.808594 243.957031 687.882812 244.675781 688.867188 245.527344 C 689.851562 246.378906 690.710938 247.335938 691.453125 248.40625 C 692.195312 249.476562 692.792969 250.621094 693.246094 251.839844 C 693.699219 253.058594 693.992188 254.3125 694.128906 255.609375 L 694.414062 257.285156 L 693.351562 258.652344 C 692.863281 259.414062 692.378906 260.175781 691.890625 261.023438 C 690.554688 263.5625 688.730469 265.6875 686.425781 267.394531 Z M 686.425781 267.394531 "/></g></svg>