<svg xmlns="http://www.w3.org/2000/svg" xmlns:xlink="http://www.w3.org/1999/xlink" width="1080" zoomAndPan="magnify" viewBox="0 0 810 809.999993" height="1080" preserveAspectRatio="xMidYMid meet" version="1.2"><defs><clipPath id="bc52459464"><path d="M 317 633 L 443 633 L 443 758.25 L 317 758.25 Z M 317 633 "/></clipPath><clipPath id="5e5d39e505"><path d="M 131.339844 208 L 306 208 L 306 685 L 131.339844 685 Z M 131.339844 208 "/></clipPath><clipPath id="e31241027a"><path d="M 453 226 L 678.839844 226 L 678.839844 695 L 453 695 Z M 453 226 "/></clipPath></defs><g id="12d47513a9"><path style=" stroke:none;fill-rule:nonzero;fill:#274d90;fill-opacity:1;" d="M 299.378906 354.183594 L 283.859375 369.699219 L 246.699219 367.800781 C 243.507812 367.640625 240.5625 369.5 239.339844 372.449219 L 225.421875 406.054688 C 224.199219 409.003906 224.96875 412.402344 227.335938 414.542969 L 254.957031 439.480469 L 254.957031 461.425781 L 227.335938 486.363281 C 224.96875 488.5 224.199219 491.902344 225.421875 494.851562 L 239.339844 528.453125 C 240.5625 531.40625 243.511719 533.269531 246.699219 533.101562 L 283.859375 531.207031 L 299.378906 546.722656 L 297.480469 583.886719 C 297.316406 587.074219 299.179688 590.019531 302.128906 591.242188 L 335.730469 605.160156 C 338.683594 606.382812 342.082031 605.617188 344.222656 603.246094 L 369.15625 575.625 L 391.101562 575.625 L 416.039062 603.246094 C 417.503906 604.867188 419.550781 605.734375 421.644531 605.734375 C 422.613281 605.734375 423.59375 605.550781 424.53125 605.160156 L 458.132812 591.242188 C 461.082031 590.019531 462.945312 587.074219 462.78125 583.886719 L 460.882812 546.722656 L 476.402344 531.207031 L 513.5625 533.101562 C 516.753906 533.265625 519.699219 531.402344 520.921875 528.453125 L 534.839844 494.851562 C 536.058594 491.902344 535.292969 488.5 532.925781 486.363281 L 505.304688 461.425781 L 505.304688 439.480469 L 532.925781 414.542969 C 535.292969 412.402344 536.058594 409.003906 534.839844 406.054688 L 520.921875 372.449219 C 519.699219 369.5 516.753906 367.636719 513.5625 367.800781 L 476.402344 369.699219 L 460.882812 354.183594 L 462.78125 317.019531 C 462.945312 313.828125 461.082031 310.882812 458.132812 309.664062 L 424.53125 295.746094 C 421.582031 294.523438 418.179688 295.289062 416.039062 297.660156 L 391.101562 325.28125 L 369.15625 325.28125 L 344.21875 297.660156 C 342.078125 295.289062 338.679688 294.519531 335.730469 295.746094 L 302.125 309.664062 C 299.175781 310.882812 297.316406 313.832031 297.476562 317.019531 Z M 312.421875 362.484375 C 313.933594 360.972656 314.730469 358.894531 314.621094 356.761719 L 312.824219 321.566406 L 336.585938 311.726562 L 360.203125 337.882812 C 361.632812 339.464844 363.667969 340.371094 365.804688 340.371094 L 394.457031 340.371094 C 396.589844 340.371094 398.625 339.464844 400.058594 337.882812 L 423.671875 311.726562 L 447.433594 321.566406 L 445.636719 356.761719 C 445.527344 358.894531 446.328125 360.972656 447.835938 362.484375 L 468.097656 382.742188 C 469.609375 384.253906 471.683594 385.054688 473.820312 384.945312 L 509.015625 383.148438 L 518.855469 406.910156 L 492.699219 430.523438 C 491.113281 431.953125 490.210938 433.988281 490.210938 436.125 L 490.210938 464.777344 C 490.210938 466.914062 491.113281 468.949219 492.699219 470.378906 L 518.855469 493.996094 L 509.015625 517.757812 L 473.820312 515.957031 C 471.691406 515.847656 469.609375 516.648438 468.097656 518.160156 L 447.839844 538.417969 C 446.328125 539.929688 445.527344 542.007812 445.636719 544.140625 L 447.4375 579.335938 L 423.675781 589.179688 L 400.058594 563.023438 C 398.628906 561.4375 396.59375 560.53125 394.457031 560.53125 L 365.804688 560.53125 C 363.671875 560.53125 361.632812 561.4375 360.203125 563.023438 L 336.589844 589.179688 L 312.828125 579.335938 L 314.625 544.140625 C 314.734375 542.007812 313.933594 539.929688 312.421875 538.417969 L 292.164062 518.160156 C 290.652344 516.648438 288.574219 515.851562 286.441406 515.957031 L 251.246094 517.757812 L 241.40625 493.996094 L 267.5625 470.378906 C 269.144531 468.949219 270.050781 466.914062 270.050781 464.777344 L 270.050781 436.125 C 270.050781 433.988281 269.144531 431.953125 267.5625 430.523438 L 241.40625 406.90625 L 251.246094 383.144531 L 286.441406 384.941406 C 288.574219 385.050781 290.652344 384.253906 292.164062 382.742188 Z M 312.421875 362.484375 "/><path style=" stroke:none;fill-rule:nonzero;fill:#274d90;fill-opacity:1;" d="M 320.746094 509.832031 C 328.457031 517.542969 337.4375 523.597656 347.4375 527.828125 C 357.796875 532.207031 368.796875 534.429688 380.128906 534.429688 C 391.460938 534.429688 402.460938 532.207031 412.820312 527.828125 C 422.820312 523.597656 431.800781 517.542969 439.511719 509.832031 C 447.222656 502.121094 453.273438 493.140625 457.503906 483.140625 C 461.882812 472.78125 464.105469 461.785156 464.105469 450.449219 C 464.105469 439.113281 461.882812 428.117188 457.503906 417.757812 C 453.273438 407.757812 447.222656 398.777344 439.511719 391.066406 C 431.800781 383.355469 422.820312 377.304688 412.820312 373.074219 C 402.460938 368.691406 391.460938 366.46875 380.128906 366.46875 C 368.796875 366.46875 357.796875 368.691406 347.4375 373.074219 C 337.4375 377.304688 328.457031 383.355469 320.746094 391.066406 C 313.035156 398.777344 306.984375 407.757812 302.753906 417.757812 C 298.371094 428.117188 296.148438 439.117188 296.148438 450.449219 C 296.148438 461.78125 298.371094 472.78125 302.753906 483.140625 C 306.984375 493.144531 313.035156 502.121094 320.746094 509.832031 Z M 331.417969 401.742188 C 344.429688 388.730469 361.730469 381.566406 380.128906 381.566406 C 398.527344 381.566406 415.828125 388.730469 428.835938 401.742188 C 441.847656 414.753906 449.015625 432.050781 449.015625 450.449219 C 449.015625 468.851562 441.851562 486.148438 428.835938 499.160156 C 415.828125 512.171875 398.527344 519.335938 380.128906 519.335938 C 361.730469 519.335938 344.429688 512.171875 331.417969 499.160156 C 318.410156 486.148438 311.246094 468.851562 311.246094 450.449219 C 311.242188 432.050781 318.410156 414.753906 331.417969 401.742188 Z M 331.417969 401.742188 "/><path style=" stroke:none;fill-rule:nonzero;fill:#274d90;fill-opacity:1;" d="M 348.765625 495.105469 L 411.492188 495.105469 C 419.253906 495.105469 425.570312 488.789062 425.570312 481.027344 C 425.570312 468.886719 420.84375 457.476562 412.261719 448.890625 C 409.050781 445.683594 405.445312 443.011719 401.550781 440.925781 C 405.925781 435.917969 408.582031 429.375 408.582031 422.21875 C 408.582031 406.527344 395.816406 393.761719 380.125 393.761719 C 364.433594 393.761719 351.671875 406.527344 351.671875 422.21875 C 351.671875 429.375 354.324219 435.921875 358.703125 440.925781 C 354.808594 443.011719 351.203125 445.679688 347.992188 448.890625 C 339.410156 457.472656 334.679688 468.886719 334.679688 481.023438 C 334.683594 488.789062 341 495.105469 348.765625 495.105469 Z M 366.765625 422.21875 C 366.765625 414.851562 372.761719 408.855469 380.128906 408.855469 C 387.496094 408.855469 393.492188 414.851562 393.492188 422.21875 C 393.492188 429.585938 387.496094 435.582031 380.128906 435.582031 C 372.761719 435.582031 366.765625 429.585938 366.765625 422.21875 Z M 380.128906 450.675781 C 396.523438 450.675781 409.925781 463.746094 410.464844 480.011719 L 349.796875 480.011719 C 350.332031 463.746094 363.730469 450.675781 380.128906 450.675781 Z M 380.128906 450.675781 "/><g clip-rule="nonzero" clip-path="url(#bc52459464)"><path style=" stroke:none;fill-rule:nonzero;fill:#274d90;fill-opacity:1;" d="M 424.152344 651.800781 C 418.4375 646.085938 411.78125 641.597656 404.367188 638.460938 C 396.683594 635.210938 388.53125 633.566406 380.128906 633.566406 C 371.726562 633.566406 363.574219 635.210938 355.890625 638.460938 C 348.476562 641.597656 341.816406 646.085938 336.101562 651.800781 C 330.386719 657.515625 325.898438 664.171875 322.761719 671.589844 C 319.515625 679.269531 317.867188 687.425781 317.867188 695.828125 C 317.867188 704.226562 319.515625 712.382812 322.761719 720.0625 C 325.898438 727.476562 330.386719 734.136719 336.101562 739.851562 C 341.816406 745.566406 348.476562 750.054688 355.890625 753.191406 C 363.574219 756.441406 371.726562 758.089844 380.128906 758.089844 C 388.53125 758.089844 396.683594 756.441406 404.367188 753.191406 C 411.78125 750.054688 418.4375 745.570312 424.152344 739.851562 C 429.867188 734.136719 434.359375 727.480469 437.496094 720.0625 C 440.742188 712.382812 442.390625 704.226562 442.390625 695.828125 C 442.390625 687.425781 440.742188 679.269531 437.496094 671.589844 C 434.355469 664.171875 429.867188 657.515625 424.152344 651.800781 Z M 413.480469 729.175781 C 404.574219 738.085938 392.726562 742.992188 380.128906 742.992188 C 367.53125 742.992188 355.6875 738.085938 346.777344 729.175781 C 337.867188 720.269531 332.960938 708.425781 332.960938 695.824219 C 332.960938 683.226562 337.867188 671.382812 346.777344 662.472656 C 355.683594 653.5625 367.527344 648.65625 380.128906 648.65625 C 392.726562 648.65625 404.570312 653.5625 413.480469 662.472656 C 422.390625 671.378906 427.296875 683.226562 427.296875 695.824219 C 427.296875 708.425781 422.390625 720.269531 413.480469 729.175781 Z M 413.480469 729.175781 "/></g><path style=" stroke:none;fill-rule:nonzero;fill:#274d90;fill-opacity:1;" d="M 387.675781 692.699219 L 387.675781 666.976562 C 387.675781 662.808594 384.296875 659.429688 380.125 659.429688 C 375.960938 659.429688 372.578125 662.808594 372.578125 666.976562 L 372.578125 695.824219 C 372.578125 697.828125 373.375 699.746094 374.789062 701.164062 L 391.082031 717.453125 C 392.554688 718.925781 394.484375 719.664062 396.417969 719.664062 C 398.351562 719.664062 400.28125 718.925781 401.753906 717.453125 C 404.703125 714.507812 404.703125 709.726562 401.753906 706.78125 Z M 387.675781 692.699219 "/><path style=" stroke:none;fill-rule:nonzero;fill:#274d90;fill-opacity:1;" d="M 346.527344 246.824219 C 350.691406 246.824219 354.074219 243.445312 354.074219 239.277344 L 354.074219 208.6875 C 354.074219 204.519531 350.695312 201.140625 346.527344 201.140625 L 315.933594 201.140625 C 311.769531 201.140625 308.386719 204.515625 308.386719 208.6875 L 308.386719 239.277344 C 308.386719 243.445312 311.765625 246.824219 315.933594 246.824219 Z M 323.484375 216.234375 L 338.976562 216.234375 L 338.976562 231.730469 L 323.484375 231.730469 Z M 323.484375 216.234375 "/><path style=" stroke:none;fill-rule:nonzero;fill:#274d90;fill-opacity:1;" d="M 403.570312 246.824219 C 407.738281 246.824219 411.117188 243.445312 411.117188 239.277344 L 411.117188 181.613281 C 411.117188 177.449219 407.738281 174.066406 403.570312 174.066406 L 372.980469 174.066406 C 368.8125 174.066406 365.429688 177.445312 365.429688 181.613281 L 365.429688 239.277344 C 365.429688 243.445312 368.808594 246.824219 372.980469 246.824219 Z M 380.527344 189.160156 L 396.023438 189.160156 L 396.023438 231.730469 L 380.527344 231.730469 Z M 380.527344 189.160156 "/><path style=" stroke:none;fill-rule:nonzero;fill:#274d90;fill-opacity:1;" d="M 422.476562 144.777344 L 422.476562 239.277344 C 422.476562 243.445312 425.851562 246.824219 430.023438 246.824219 L 460.613281 246.824219 C 464.78125 246.824219 468.160156 243.445312 468.160156 239.277344 L 468.160156 144.777344 C 468.160156 140.609375 464.78125 137.230469 460.613281 137.230469 L 430.023438 137.230469 C 425.851562 137.230469 422.476562 140.609375 422.476562 144.777344 Z M 437.566406 152.324219 L 453.066406 152.324219 L 453.066406 231.730469 L 437.566406 231.730469 Z M 437.566406 152.324219 "/><path style=" stroke:none;fill-rule:nonzero;fill:#274d90;fill-opacity:1;" d="M 315.929688 183.40625 C 316.164062 183.40625 316.40625 183.394531 316.644531 183.375 L 318.40625 183.207031 C 331.019531 182.015625 343.488281 179.34375 355.46875 175.261719 C 367.292969 171.230469 378.660156 165.824219 389.25 159.1875 C 399.839844 152.550781 409.664062 144.683594 418.449219 135.800781 C 426.109375 128.050781 432.988281 119.519531 438.949219 110.382812 L 440.6875 116.605469 C 441.621094 119.941406 444.652344 122.121094 447.953125 122.121094 C 448.625 122.121094 449.308594 122.03125 449.988281 121.839844 C 454.003906 120.714844 456.347656 116.550781 455.222656 112.539062 L 448.1875 87.390625 C 447.066406 83.378906 442.902344 81.035156 438.886719 82.15625 L 413.742188 89.191406 C 409.726562 90.3125 407.382812 94.476562 408.503906 98.492188 C 409.625 102.503906 413.792969 104.847656 417.804688 103.726562 L 426.925781 101.175781 C 421.378906 109.824219 414.933594 117.886719 407.714844 125.1875 C 399.75 133.242188 390.84375 140.378906 381.234375 146.394531 C 371.628906 152.414062 361.324219 157.320312 350.601562 160.976562 C 339.738281 164.679688 328.429688 167.101562 316.988281 168.183594 L 315.226562 168.347656 C 311.078125 168.738281 308.03125 172.421875 308.421875 176.570312 C 308.792969 180.476562 312.078125 183.40625 315.929688 183.40625 Z M 315.929688 183.40625 "/><path style=" stroke:none;fill-rule:nonzero;fill:#274d90;fill-opacity:1;" d="M 315.933594 271.445312 L 460.609375 271.445312 C 464.777344 271.445312 468.160156 268.066406 468.160156 263.898438 C 468.160156 259.726562 464.78125 256.347656 460.609375 256.347656 L 315.933594 256.347656 C 311.769531 256.347656 308.386719 259.726562 308.386719 263.898438 C 308.386719 268.066406 311.769531 271.445312 315.933594 271.445312 Z M 315.933594 271.445312 "/><g clip-rule="nonzero" clip-path="url(#5e5d39e505)"><path style=" stroke:none;fill-rule:nonzero;fill:#274d90;fill-opacity:1;" d="M 300.84375 670.347656 C 278.558594 662.316406 257.664062 650.933594 238.734375 636.53125 C 220 622.269531 203.558594 605.332031 189.871094 586.179688 C 176.015625 566.792969 165.257812 545.519531 157.898438 522.953125 C 150.292969 499.625 146.4375 475.230469 146.4375 450.453125 C 146.4375 403.871094 160.101562 358.894531 185.949219 320.382812 C 198.417969 301.808594 213.464844 285.125 230.671875 270.792969 C 244.519531 259.261719 259.589844 249.402344 275.617188 241.375 L 273.164062 250.980469 C 272.132812 255.019531 274.570312 259.128906 278.609375 260.160156 C 279.234375 260.320312 279.863281 260.394531 280.480469 260.394531 C 283.847656 260.394531 286.917969 258.125 287.789062 254.714844 L 295.265625 225.4375 C 296.296875 221.398438 293.859375 217.289062 289.820312 216.257812 L 260.542969 208.777344 C 256.503906 207.746094 252.394531 210.1875 251.363281 214.222656 C 250.332031 218.261719 252.773438 222.371094 256.808594 223.402344 L 270.722656 226.957031 C 252.964844 235.664062 236.289062 246.472656 221.015625 259.191406 C 202.699219 274.445312 186.6875 292.203125 173.417969 311.96875 C 145.890625 352.976562 131.34375 400.863281 131.34375 450.449219 C 131.34375 476.820312 135.449219 502.789062 143.546875 527.628906 C 151.382812 551.660156 162.835938 574.3125 177.589844 594.957031 C 192.15625 615.335938 209.652344 633.363281 229.589844 648.542969 C 249.742188 663.878906 271.992188 675.992188 295.71875 684.546875 C 296.5625 684.855469 297.429688 685 298.277344 685 C 301.371094 685 304.269531 683.085938 305.378906 680.007812 C 306.796875 676.089844 304.761719 671.765625 300.84375 670.347656 Z M 300.84375 670.347656 "/></g><g clip-rule="nonzero" clip-path="url(#e31241027a)"><path style=" stroke:none;fill-rule:nonzero;fill:#274d90;fill-opacity:1;" d="M 673.753906 412.9375 C 670.617188 405.523438 666.128906 398.867188 660.414062 393.148438 C 654.699219 387.433594 648.039062 382.945312 640.625 379.808594 C 633.203125 376.671875 625.339844 375.03125 617.238281 374.925781 C 612.398438 359.722656 606.058594 344.933594 598.371094 330.925781 C 590.304688 316.226562 580.699219 302.28125 569.816406 289.472656 C 558.984375 276.71875 546.824219 265.015625 533.667969 254.683594 C 520.429688 244.285156 506.097656 235.210938 491.074219 227.714844 C 487.34375 225.851562 482.8125 227.367188 480.949219 231.097656 C 479.089844 234.828125 480.605469 239.359375 484.332031 241.21875 C 498.445312 248.261719 511.90625 256.785156 524.34375 266.554688 C 536.703125 276.261719 548.132812 287.261719 558.3125 299.242188 C 568.535156 311.277344 577.558594 324.378906 585.136719 338.1875 C 591.863281 350.449219 597.496094 363.351562 601.910156 376.605469 C 598.585938 377.398438 595.324219 378.464844 592.148438 379.808594 C 584.734375 382.945312 578.078125 387.433594 572.359375 393.148438 C 566.644531 398.863281 562.15625 405.523438 559.019531 412.9375 C 555.769531 420.621094 554.121094 428.773438 554.121094 437.175781 C 554.121094 445.578125 555.769531 453.730469 559.019531 461.414062 C 562.15625 468.828125 566.644531 475.484375 572.359375 481.199219 C 578.074219 486.914062 584.730469 491.40625 592.148438 494.539062 C 597.484375 496.796875 603.050781 498.28125 608.769531 498.976562 C 600.742188 536.960938 583.195312 572.558594 557.8125 602.238281 C 534.660156 629.320312 505.617188 650.773438 473.179688 664.878906 L 477.105469 651.363281 C 478.269531 647.359375 475.96875 643.171875 471.964844 642.011719 C 467.960938 640.847656 463.773438 643.148438 462.613281 647.152344 L 454.179688 676.167969 C 453.019531 680.171875 455.320312 684.359375 459.324219 685.523438 L 488.339844 693.953125 C 489.046875 694.15625 489.753906 694.253906 490.449219 694.253906 C 493.722656 694.253906 496.734375 692.109375 497.695312 688.8125 C 498.855469 684.808594 496.554688 680.621094 492.554688 679.460938 L 483.464844 676.816406 C 516.277344 661.804688 545.664062 639.675781 569.285156 612.050781 C 597.003906 579.632812 615.945312 540.585938 624.179688 498.957031 C 629.835938 498.25 635.34375 496.773438 640.625 494.539062 C 648.039062 491.40625 654.695312 486.917969 660.414062 481.199219 C 666.128906 475.484375 670.617188 468.828125 673.753906 461.410156 C 677 453.730469 678.648438 445.578125 678.648438 437.175781 C 678.648438 428.773438 677 420.621094 673.753906 412.9375 Z M 649.738281 470.527344 C 640.832031 479.4375 628.988281 484.34375 616.386719 484.34375 C 603.789062 484.34375 591.945312 479.4375 583.035156 470.527344 C 574.125 461.621094 569.21875 449.773438 569.21875 437.175781 C 569.21875 424.574219 574.125 412.734375 583.035156 403.824219 C 591.941406 394.914062 603.789062 390.007812 616.386719 390.007812 C 628.988281 390.007812 640.828125 394.914062 649.738281 403.824219 C 658.648438 412.730469 663.554688 424.574219 663.554688 437.175781 C 663.554688 449.773438 658.648438 461.621094 649.738281 470.527344 Z M 649.738281 470.527344 "/></g><path style=" stroke:none;fill-rule:nonzero;fill:#274d90;fill-opacity:1;" d="M 633.15625 419.007812 L 605.667969 446.5 L 595.335938 436.167969 C 592.386719 433.222656 587.609375 433.222656 584.660156 436.167969 C 581.714844 439.117188 581.714844 443.894531 584.660156 446.839844 L 600.328125 462.507812 C 601.742188 463.921875 603.664062 464.71875 605.667969 464.71875 C 607.667969 464.71875 609.585938 463.921875 611.003906 462.507812 L 643.832031 429.679688 C 646.78125 426.730469 646.78125 421.953125 643.832031 419.007812 C 640.882812 416.0625 636.105469 416.0625 633.15625 419.007812 Z M 633.15625 419.007812 "/></g></svg>